<?xml version="1.0" encoding="UTF-8"?><svg xmlns="http://www.w3.org/2000/svg" xmlns:xlink="http://www.w3.org/1999/xlink" version="1.1" width="149.40296" height="231.66311" viewBox="0,0,149.40296,231.66311">
    <defs>
        <linearGradient x1="240.05574" y1="175.5" x2="240.05574" y2="307.5" gradientUnits="userSpaceOnUse" id="color-1">
            <stop offset="0" stop-color="#000000"/>
            <stop offset="1" stop-color="#4e8046"/>
        </linearGradient>
        <linearGradient x1="247.29785" y1="83.26544" x2="235.09203" y2="203.24283" gradientUnits="userSpaceOnUse" id="color-2">
            <stop offset="0" stop-color="#1a1a1a"/>
            <stop offset="1" stop-color="#808080"/>
        </linearGradient>
        <linearGradient x1="216.46153" y1="117.56775" x2="214.02961" y2="141.47236" gradientUnits="userSpaceOnUse" id="color-3">
            <stop offset="0" stop-color="#333333"/>
            <stop offset="1" stop-color="#666666"/>
        </linearGradient>
        <linearGradient x1="270.44135" y1="123.05935" x2="268.01023" y2="146.95611" gradientUnits="userSpaceOnUse" id="color-4">
            <stop offset="0" stop-color="#333333"/>
            <stop offset="1" stop-color="#666666"/>
        </linearGradient>
    </defs>
    <g transform="translate(-165.29852,-75.83688)">
        <g stroke-miterlimit="10">
            <path d="M173.00468,139.33236c0.16766,-1.64803 -5.57698,-2.5006 -5.57698,-2.5006c0,0 7.55996,-8.15417 8.50036,-10.91341c9.54281,-28.00012 29.55734,-53.50288 72.08718,-49.70453c45.50876,4.06438 64.3431,41.73749 60.76267,76.93136c-0.0676,0.66452 2.32196,7.58555 3.35846,10.76152c1.74607,5.35018 2.56511,7.75812 2.56511,7.75812c0,0 -2.46502,-1.92631 -4.43807,-4.03674c-1.94059,-2.07571 -3.38735,-4.34408 -3.66578,-3.40358c-0.66555,2.24817 -1.69803,10.80605 -6.12346,19.39744c-4.37632,8.49605 -12.14979,17.03903 -12.14979,17.03903c0,0 -1.7451,-5.49124 -3.43937,-3.5077c-6.93447,8.11846 -12.7879,14.08762 -12.7879,14.08762c0,0 -1.89362,-5.19552 -4.05665,-4.30031c-9.78585,4.05001 -20.7605,5.83956 -32.2916,4.66645c-12.54182,-1.27593 -24.28384,-6.05524 -34.12561,-13.04836c-2.55765,-1.81736 -1.26609,4.28173 -1.26609,4.28173c0,0 -7.37169,-5.97355 -11.97527,-12.28192c-5.37034,-7.3591 -8.21192,-15.4812 -10.18521,-19.82209c-0.27993,-0.6158 -4.16006,1.17283 -6.10722,1.40161c-3.01211,0.35392 -4.45233,-0.5352 -4.45233,-0.5352c0,0 2.99903,-3.08902 4.05449,-4.7691c1.13179,-1.80158 2.52325,-5.70135 2.52325,-5.70135c0,0 -2.84354,1.62945 -4.2802,1.96189c-1.52963,0.35396 -4.63615,0.10137 -4.63615,0.10137c0,0 4.94091,-5.16986 6.88361,-10.91957c1.83021,-5.4168 0.66374,-11.38238 0.82258,-12.94368z" fill="#000000" stroke="#000000" stroke-width="0" stroke-linecap="butt"/>
            <path d="M206.80575,307.49999l15.14285,-131.8421l37.78325,-0.15789l13.57389,132z" fill="url(#color-1)" stroke="#000000" stroke-width="0" stroke-linecap="butt"/>
            <path d="M177.28778,136.75258c3.37055,-33.13084 34.71513,-57.07785 70.01007,-53.48714c35.29494,3.59071 61.17479,33.35941 57.80424,66.49025c-3.37055,33.13084 -34.71513,57.07785 -70.01007,53.48714c-35.29494,-3.59071 -61.17479,-33.35941 -57.80424,-66.49025z" fill="url(#color-2)" stroke="#000000" stroke-width="0" stroke-linecap="butt"/>
            <path d="M249.64093,190.12914c0,0 -2.17749,-1.08814 -5.09509,-0.86662c-3.08918,0.23454 -6.99174,1.7767 -9.41123,1.6706c-2.18425,-0.09577 -5.04871,-1.53148 -7.52082,-1.95947c-2.61587,-0.45287 -4.78031,0.10353 -4.78031,0.10353" fill="none" stroke="#000000" stroke-width="2" stroke-linecap="round"/>
            <path d="M185.78871,107.75514c13.66201,-21.40951 34.59566,-29.72255 63.57881,-26.55409c24.02078,2.62596 38.00448,13.18933 45.65733,21.97014c0.85634,0.98256 -11.67655,4.42181 -18.92748,5.63471c-15.64218,2.61654 -30.83411,3.14733 -30.83411,3.14733l7.74655,-10.43989c0,0 -24.32685,4.90622 -35.77148,6.00033c-11.34061,1.08417 -31.44961,0.24146 -31.44961,0.24146z" fill="#000000" stroke="none" stroke-width="0" stroke-linecap="butt"/>
            <g fill="#800000" stroke="none" stroke-width="0.5" stroke-linecap="butt">
                <path d="M232.27382,149.40352c2.48716,0.25303 2.23413,2.74019 2.23413,2.74019l-0.16869,1.65811c-0.33247,3.268 0.01846,7.86364 -1.05629,11.02108c-0.09691,0.59269 -0.18008,1.13187 -0.22572,1.58054l-0.30364,2.98459c-0.13974,1.37362 -1.36657,2.37388 -2.74019,2.23413c-1.37362,-0.13974 -2.37388,-1.36657 -2.23413,-2.74019l0.28732,-2.82422c-0.05517,-0.00197 -0.11065,-0.00576 -0.16637,-0.01143c-0.25243,-0.02568 -0.49225,-0.08808 -0.71471,-0.18135c-0.41659,0.22977 -1.01538,0.4456 -1.84905,0.63761c-1.31174,0.30213 -2.71384,-0.12037 -3.98339,-0.73006c-0.10302,0.83259 -0.29743,1.54639 -0.58492,2.03599c-0.90996,1.54969 -2.02515,3.78833 -3.8222,3.80222c-3.15754,0.02439 -4.24334,-3.06867 -4.56848,-5.66686c-0.1735,0.11132 -0.36049,0.2005 -0.56456,0.26132c-1.03015,0.30703 -2.10364,0.12438 -3.1495,-0.31437c-0.16159,0.28112 -0.34144,0.5511 -0.54592,0.80606c-0.44303,0.55238 -1.40865,0.28796 -2.07994,0.52022l-0.39091,1.70216c-0.26374,1.2299 -1.4166,2.09017 -2.69702,1.95991c-0.94171,-0.0958 -1.70794,-0.70254 -2.05166,-1.51723l-1.07064,-2.41194l0.06656,-0.02954l-0.14046,-0.15675c-0.18455,-0.72819 -0.74625,-2.41224 -0.92383,-4.02762l-1.348,2.35647c-0.46656,0.85976 -1.41739,1.40054 -2.4514,1.29535c-1.28042,-0.13026 -2.23642,-1.20509 -2.24707,-2.4629l-0.05892,-2.5649c-0.59491,-5.03145 -0.4106,-9.43707 0.10063,-14.46216c0,0 0.25303,-2.48716 2.74019,-2.23413c2.48716,0.25303 2.23413,2.74019 2.23413,2.74019c-0.30608,3.00863 -0.48169,5.73347 -0.43058,8.53221c1.53726,-1.34901 3.51781,-2.11994 5.34466,-0.87475c1.16745,0.79574 1.39322,2.9116 1.45533,5.08346c0.45602,-0.28789 1.00813,-0.43101 1.58625,-0.37219l2.65297,0.2699l-0.03177,0.31226l0.30457,0.06995l-0.02844,0.12381c0.0432,-0.0354 0.09058,-0.06713 0.14267,-0.09473c0.52292,-0.27698 0.88511,1.09642 1.46852,0.99745c0.44194,-0.07498 0.07652,-0.93508 0.33259,-1.303c2.01058,-2.88884 3.96758,-5.45514 8.30423,-3.12097c0.43477,0.23401 0.81486,0.63913 1.1394,1.16116c0.77259,0.12473 1.39516,0.28985 1.72027,0.47545c0.91187,0.52059 1.17236,1.74651 1.6678,2.67228c0.08317,0.15541 -0.01893,0.69147 0.04432,0.52694c0.26414,-0.6871 -0.08611,-1.80493 0.573,-2.13275c0.9586,-0.47679 2.03049,-0.60105 3.11775,-0.67742c0.12823,-0.34509 0.29863,-0.6929 0.3816,-1.03507l0.29172,-2.86745v0c0.0971,-0.95442 0.71902,-1.72859 1.55033,-2.06534l0.14726,-1.44754c0,0 0.25303,-2.48716 2.74019,-2.23413z"/>
                <path d="M205.84544,174.64241c-2.40324,0.68877 -3.09202,-1.71447 -3.09202,-1.71447l-0.02892,-0.83459c-0.59577,-0.73072 -1.19154,-1.46144 -1.78731,-2.19215c0,0 -1.57977,-1.93761 0.35784,-3.51738c1.93761,-1.57977 3.51737,0.35784 3.51737,0.35784c0.59577,0.73072 1.19154,1.46144 1.78731,2.19215l0.9602,2.61658c0,0 0.68877,2.40324 -1.71447,3.09202z"/>
                <path d="M194.34523,171.47433c0.13974,-1.37362 1.36657,-2.37388 2.74019,-2.23413c1.37362,0.13974 2.37388,1.36657 2.23413,2.74019c-0.13974,1.37362 -1.36657,2.37388 -2.74019,2.23413c-1.37362,-0.13974 -2.37388,-1.36657 -2.23413,-2.74019z"/>
                <path d="M211.98845,177.54119c-1.24358,-0.12651 -1.11707,-1.3701 -1.11707,-1.3701l0.47936,-0.59365c0.00083,-0.00913 0.00171,-0.01828 0.00264,-0.02742c0.13974,-1.37362 1.36657,-2.37388 2.74019,-2.23413c1.37362,0.13974 2.37388,1.36657 2.23413,2.74019c-0.13974,1.37362 -1.36657,2.37388 -2.74019,2.23413c-0.60847,-0.0619 -1.14368,-0.33711 -1.539,-0.7439c-0.01973,-0.00135 -0.03975,-0.00305 -0.06007,-0.00512z"/>
                <path d="M222.45016,174.33357c0.06987,-0.68681 0.68329,-1.18694 1.3701,-1.11707c0.68681,0.06987 1.18694,0.68329 1.11707,1.3701c-0.06987,0.68681 -0.68329,1.18694 -1.3701,1.11707c-0.68681,-0.06987 -1.18694,-0.68329 -1.11707,-1.3701z"/>
            </g>
            <g fill="#800000" stroke="none" stroke-width="0.5" stroke-linecap="butt">
                <path d="M262.27128,167.73473c0.87792,-0.6919 1.72578,-1.42948 2.4165,-1.83348c0,0 0.95091,-0.54302 1.95344,-0.28096c0.31105,-0.42138 0.66965,-0.78507 1.12657,-1.03c1.43253,-0.76791 3.27716,-1.09859 4.83472,-0.63401c0.82033,0.24468 1.54138,0.78862 2.13608,1.4573c1.0513,-0.75077 2.03563,-1.63144 3.24856,-2.03447c2.04689,-0.68015 4.72107,0.73203 6.45049,-0.54832c0.07752,-0.2539 0.15024,-0.50311 0.22093,-0.74187c-0.00294,-0.35706 -0.02796,-0.72166 0.22443,-0.84869l0.23123,-2.27283c0.13974,-1.37362 1.36657,-2.37388 2.74019,-2.23413c1.37362,0.13974 2.37388,1.36657 2.23413,2.74019l-0.2699,2.65297l-0.08033,-0.00817c0.0055,0.08959 0.00855,0.17953 0.00898,0.26986l0.02888,0.0082c-0.00983,0.02972 -0.01964,0.05944 -0.02945,0.08915c-0.0002,0.01203 -0.00044,0.02405 -0.00073,0.0361c-0.04509,1.85843 -0.55953,3.012 -1.35828,3.73728c-0.96984,2.21621 -2.3314,4.12445 -4.91118,5.16921c-1.82274,0.73817 -3.97013,0.00571 -5.88076,0.47129c-1.46449,0.35687 -2.79467,2.27094 -4.19003,1.70078c-1.43899,-0.58798 -1.29615,-2.82627 -1.9804,-4.22207c-0.12713,-0.25933 -0.48082,-1.21861 -1.03156,-0.53286c-1.26112,1.57027 -2.14353,3.58834 -3.8519,4.65495c-1.11866,0.69843 -2.84559,0.3568 -3.93683,0.97021l-0.06193,2.05848l0.05929,2.58098c0.00432,0.11514 0.00072,0.23196 -0.01127,0.34987c-0.13974,1.37362 -1.36657,2.37388 -2.74019,2.23413c-1.18365,-0.12042 -2.09006,-1.04802 -2.22872,-2.18117l-0.32096,-2.21986c-4.4815,-0.32245 -3.94424,-2.95491 -5.48179,-5.44493c-0.52996,-0.85825 -1.43541,-1.46418 -1.88528,-2.36699c-1.62252,-3.25606 -1.05863,-6.47964 -1.63072,-9.81843c-0.15067,-0.87932 -0.93007,-1.56723 -1.08803,-2.44528c-0.22844,-1.2699 -0.0321,-2.58037 -0.04814,-3.87056c0,0 0.00429,-2.5 2.50429,-2.49571c2.5,0.00429 2.49571,2.50429 2.49571,2.50429c-0.03791,1.79842 0.72966,3.52361 1.03298,5.29667c0.25462,1.48839 0.1769,3.07698 0.26686,4.64365c0.0705,0.00121 0.14154,0.00539 0.21297,0.01266c0.46476,0.04728 0.88678,0.21901 1.23636,0.47877l2.15068,1.53712l-0.15319,0.21434c1.43949,0.55534 2.82375,1.20465 4.58164,2.07542l-0.19395,-0.17973c0,0 0.46327,0.04713 0.9696,0.30065z"/>
                <path d="M256.73253,181.51376c-0.21227,0.58814 -0.61256,0.77591 -0.95965,0.81668c-0.01583,0.59169 -0.09834,1.14561 -0.51107,1.51253c-3.53766,3.14508 -3.74736,-1.56939 -3.19438,-2.91926c0.31708,-0.77402 1.32437,-1.02207 1.98655,-1.5331l0.18079,0.04907c0.13957,-0.03382 0.30092,-0.04565 0.48737,-0.02668c0.39321,0.04 0.64944,0.19169 0.816,0.38043l0.44296,0.12022c0,0 1.17577,0.42435 0.75142,1.60012z"/>
                <path d="M273.53487,175.63098c1.24358,0.12651 1.11707,1.3701 1.11707,1.3701l-0.20242,1.98973c-0.06987,0.68681 -0.68329,1.18694 -1.3701,1.11707c-0.46093,-0.04689 -0.83777,-0.33859 -1.01467,-0.73299l-0.81644,-1.73859l0.89365,-0.66392l0.02282,-0.22433c0,0 0.12651,-1.24358 1.3701,-1.11707z"/>
                <path d="M283.97692,175.39428c0.17739,-0.02315 0.30479,-0.01019 0.30479,-0.01019l1.50553,0.52117c0.39142,0.64133 1.36656,1.19768 1.17427,1.924c-1.35774,5.1285 -4.79783,1.26997 -4.71314,-1.39558c0,0 0.12651,-1.24358 1.3701,-1.11707c0.13499,0.01373 0.25383,0.04063 0.35845,0.07767z"/>
            </g>
            <path d="M190.72494,138.55129c1.31252,-12.90141 12.83519,-22.29607 25.7366,-20.98355c12.90141,1.31252 22.29607,12.83519 20.98355,25.7366c-1.31252,12.90141 -12.83519,22.29607 -25.7366,20.98355c-12.90141,-1.31252 -22.29607,-12.83519 -20.98355,-25.7366z" fill="#000000" stroke="#000000" stroke-width="0" stroke-linecap="butt"/>
            <path d="M265.68831,169.77948c-12.90141,-1.31252 -22.29607,-12.83519 -20.98355,-25.7366c1.31252,-12.90141 12.83519,-22.29607 25.7366,-20.98355c12.90141,1.31252 22.29607,12.83519 20.98355,25.7366c-1.31252,12.90141 -12.83519,22.29607 -25.7366,20.98355z" fill="#000000" stroke="#000000" stroke-width="0" stroke-linecap="butt"/>
            <path d="M190.72494,138.5513c1.31252,-12.90141 12.83519,-22.29607 25.7366,-20.98355c12.90141,1.31252 22.29607,12.83519 20.98355,25.7366c0,0 -46.84481,-3.52782 -46.72016,-4.75305z" fill="url(#color-3)" stroke="#000000" stroke-width="0" stroke-linecap="butt"/>
            <path d="M244.70477,144.0429c1.31252,-12.90141 12.83519,-22.29607 25.7366,-20.98355c12.90141,1.31252 22.29607,12.83519 20.98355,25.7366c-0.12285,1.20757 -46.72016,-4.75305 -46.72016,-4.75305z" fill="url(#color-4)" stroke="#000000" stroke-width="0" stroke-linecap="butt"/>
        </g>
    </g>
</svg>
