<svg version="1.1" xmlns="http://www.w3.org/2000/svg" xmlns:xlink="http://www.w3.org/1999/xlink" width="176.88394" height="283.02469" viewBox="0,0,176.88394,283.02469"><g transform="translate(-225.03958,-38.48766)"><g data-paper-data="{&quot;isPaintingLayer&quot;:true}" fill-rule="nonzero" stroke-linejoin="miter" stroke-miterlimit="10" stroke-dasharray="" stroke-dashoffset="0" style="mix-blend-mode: normal"><path d="M242.86002,309.08754v-267.22501h123.18203v267.22501z" fill-opacity="0.01" fill="#000000" stroke="none" stroke-width="0" stroke-linecap="butt"/><g stroke="none" stroke-width="0" stroke-linecap="butt"><path d="M243.19813,107.28804l-7.15747,7.15747l-4.31173,-4.31173l7.15747,-7.15747z" fill="#6f3332"/><path d="M240.28212,114.89265l-3.27691,3.27692l-9.00034,-9.00034l3.27691,-3.27692z" fill="#c74f4f"/></g><g stroke="none" stroke-width="0" stroke-linecap="butt"><path d="M239.35606,77.02538l-7.15747,-7.15747l4.31173,-4.31173l7.15747,7.15747z" fill="#6f3332"/><path d="M231.75145,74.10937l-3.27691,-3.27691l9.00034,-9.00034l3.27692,3.27691z" fill="#c74f4f"/></g><g data-paper-data="{&quot;index&quot;:null}" stroke="none" stroke-width="0" stroke-linecap="butt"><path d="M267.47454,72.71365l7.15747,-7.15747l4.31173,4.31173l-7.15747,7.15747z" fill="#6f3332"/><path d="M270.39054,65.10904l3.27692,-3.27691l9.00034,9.00034l-3.27691,3.27691z" fill="#c74f4f"/></g><g stroke="none" stroke-width="0" stroke-linecap="butt"><path d="M237.11303,94.01097h-10.12219v-6.09771h10.12219z" fill="#6f3332"/><path d="M229.67383,97.32631l-4.63425,0.00001v-12.7284h4.63425z" fill="#c74f4f"/></g><g stroke="none" stroke-width="0" stroke-linecap="butt"><path d="M254.02745,70.24883v-10.12219h6.09771v10.12219z" fill="#6f3332"/><path d="M250.7121,62.80963v-4.63425h12.7284v4.63425z" fill="#c74f4f"/></g><path d="M235.92352,91.10473c0,-11.87412 9.62588,-21.5 21.5,-21.5c11.87412,0 21.5,9.62588 21.5,21.5c0,11.87412 -9.62588,21.5 -21.5,21.5c-11.87412,0 -21.5,-9.62588 -21.5,-21.5z" fill="#6f3332" stroke="#c74f4f" stroke-width="5" stroke-linecap="butt"/><path d="M329.97212,87.42721v-40.5h17v40.5z" fill="#9d89c7" stroke="none" stroke-width="0" stroke-linecap="butt"/><path d="M329.97212,58.41875v-11.49154h17v11.24154z" fill="#6a5b8a" stroke="none" stroke-width="0" stroke-linecap="butt"/><path d="M374.87491,101.92721c0.68219,-1.56747 -0.5,-31 -0.5,-31h17c0,0 4.90645,38.93918 0,45.5c-4.22456,5.64899 -25.90518,3.2858 -25.90518,3.2858l-2.84492,-15.05101c0,0 11.27966,-0.50502 12.25009,-2.7348z" data-paper-data="{&quot;index&quot;:null}" fill="#9d89c7" stroke="none" stroke-width="0" stroke-linecap="butt"/><path d="M374.78752,82.6677l-0.41261,-11.74049h17l1.29354,12.66471z" data-paper-data="{&quot;index&quot;:null}" fill="#6a5b8a" stroke="none" stroke-width="0" stroke-linecap="butt"/><path d="M235.58293,133.67836c0,-1.65654 -5.80143,-1.9233 -5.80143,-1.9233c0,0 6.69584,-8.87746 7.35214,-11.71771c6.65986,-28.82218 23.99043,-56.21969 66.68631,-56.74538c45.68643,-0.56252 68.23702,35.01087 68.23702,70.3864c0,0.66795 3.07779,7.31159 4.43041,10.36634c2.27861,5.14598 3.33715,7.45866 3.33715,7.45866c0,0 -2.64733,-1.66693 -4.82385,-3.56682c-2.14071,-1.86864 -3.80963,-3.97893 -3.99144,-3.01508c-0.43459,2.30399 -0.59561,10.92242 -4.12876,19.9176c-3.49395,8.89536 -10.36285,18.18124 -10.36285,18.18124c0,0 -2.29192,-5.28642 -3.77673,-3.14158c-6.07718,8.77862 -11.2964,15.30957 -11.2964,15.30957c0,0 -2.40974,-4.97718 -4.47106,-3.86765c-9.32569,5.01966 -20.06286,7.91078 -31.65348,7.91078c-12.60656,0 -24.772,-3.56633 -35.27102,-9.52744c-2.72845,-1.54916 -0.82623,4.38789 -0.82623,4.38789c0,0 -7.93843,-5.19677 -13.15685,-11.00681c-6.08759,-6.77777 -9.73663,-14.57056 -12.13914,-18.68944c-0.34082,-0.58431 -4.01999,1.58785 -5.934,2.01254c-2.96082,0.65696 -4.48364,-0.08182 -4.48364,-0.08182c0,0 2.67098,-3.37669 3.55098,-5.15497c0.94364,-1.90688 1.93325,-5.92746 1.93325,-5.92746c0,0 -2.66402,1.90888 -4.05965,2.38502c-1.48595,0.50696 -4.60208,0.57008 -4.60208,0.57008c0,0 4.39229,-5.64339 5.74307,-11.5602c1.27257,-5.57422 -0.4917,-11.39111 -0.4917,-12.96047z" fill="#000000" stroke="#000000" stroke-width="0" stroke-linecap="butt"/><path d="M270.32633,302.83217l15.14285,-131.8421l37.78325,-0.15789l13.57389,132z" fill="#9f3f41" stroke="#9f3f41" stroke-width="2" stroke-linecap="butt"/><path d="M269.18347,304.11788l15.14285,-131.8421l6.11658,-0.15789l-14.75944,132z" fill="#c94e54" stroke="#9f3f41" stroke-width="0" stroke-linecap="butt"/><path d="M338.8263,196.83217c0,16.2924 -15.78197,29.5 -35.25,29.5c-19.46803,0 -35.25,-13.2076 -35.25,-29.5c0,-16.2924 15.78197,-29.5 35.25,-29.5c19.46803,0 35.25,13.2076 35.25,29.5z" fill="#673f3c" stroke="none" stroke-width="0" stroke-linecap="butt"/><path d="M338.8263,196.83217c0,16.2924 -15.78197,29.5 -35.25,29.5c-19.46803,0 -35.25,-13.2076 -35.25,-29.5c0,-1.38402 9.44359,25.53038 35.25,26.16666c27.03864,0.66666 35.25,-28.19977 35.25,-26.16666z" fill="#5e302e" stroke="none" stroke-width="0" stroke-linecap="butt"/><path d="M239.41624,132.17833c0,-33.30185 28.7599,-60.29833 64.23702,-60.29833c35.47712,0 64.23702,26.99649 64.23702,60.29833c0,33.30185 -28.7599,60.29833 -64.23702,60.29833c-35.47712,0 -64.23702,-26.99649 -64.23702,-60.29833z" fill="#ffffff" stroke="#000000" stroke-width="2" stroke-linecap="butt"/><path d="M240.13931,132.23215c0,-0.72799 5.20666,55.91939 63.36046,56.93429c55.56352,0.9697 63.51358,-57.95314 63.51358,-56.93429c0,32.80479 -28.40173,59.39833 -63.43702,59.39833c-35.03529,0 -63.43702,-26.59354 -63.43702,-59.39833z" fill="#e6e6e6" stroke="#000000" stroke-width="0" stroke-linecap="butt"/><path d="M252.96645,132.6078c0,-12.968 10.51265,-23.48065 23.48065,-23.48065c12.968,0 23.48065,10.51265 23.48065,23.48065c0,12.968 -10.51265,23.48065 -23.48065,23.48065c-12.968,0 -23.48065,-10.51265 -23.48065,-23.48065z" fill="#ffffff" stroke="#000000" stroke-width="2" stroke-linecap="butt"/><path d="M260.03184,132.33217c0,-9.12808 7.39976,-16.52784 16.52783,-16.52784c9.12808,0 16.52784,7.39977 16.52784,16.52784c0,9.12808 -7.39977,16.52784 -16.52784,16.52784c-9.12808,0 -16.52783,-7.39977 -16.52783,-16.52784z" fill="#000000" stroke="none" stroke-width="0" stroke-linecap="butt"/><path d="M330.70556,156.08844c-12.968,0 -23.48065,-10.51265 -23.48065,-23.48065c0,-12.968 10.51265,-23.48065 23.48065,-23.48065c12.968,0 23.48065,10.51265 23.48065,23.48065c0,12.968 -10.51265,23.48065 -23.48065,23.48065z" data-paper-data="{&quot;index&quot;:null}" fill="#ffffff" stroke="#000000" stroke-width="2" stroke-linecap="butt"/><path d="M330.59298,148.86001c-9.12807,0 -16.52783,-7.39977 -16.52783,-16.52784c0,-9.12808 7.39977,-16.52784 16.52783,-16.52784c9.12807,0 16.52783,7.39977 16.52783,16.52784c0,9.12808 -7.39977,16.52784 -16.52783,16.52784z" data-paper-data="{&quot;index&quot;:null}" fill="#000000" stroke="none" stroke-width="0" stroke-linecap="butt"/><path d="M265.60412,103.79933c0,0 6.70895,-5.16922 11.79721,-6.36355c5.08827,-1.19433 12.33413,0.69937 12.33413,0.69937c0,0 -8.03812,-0.06028 -11.96762,0.86207c-4.10648,0.96389 -12.16372,4.80211 -12.16372,4.80211z" fill="#000000" stroke="none" stroke-width="0" stroke-linecap="butt"/><path d="M329.53866,98.99723c-3.9295,-0.92235 -11.96762,-0.86207 -11.96762,-0.86207c0,0 7.24586,-1.8937 12.33413,-0.69937c5.08826,1.19433 11.79721,6.36355 11.79721,6.36355c0,0 -8.05724,-3.83822 -12.16372,-4.80211z" data-paper-data="{&quot;index&quot;:null}" fill="#000000" stroke="none" stroke-width="0" stroke-linecap="butt"/><path d="M246.43866,100.9694c11.42496,-22.68233 31.40973,-33.07142 60.56473,-32.85267c24.16321,0.18129 39.14424,9.27509 47.64651,17.23625c0.95139,0.89084 -11.16905,5.58091 -18.25999,7.52146c-15.29703,4.18628 -30.35723,6.25195 -30.35723,6.25195l6.65013,-11.17032c0,0 -23.70536,7.34319 -34.98048,9.59002c-11.17264,2.22641 -31.26367,3.4233 -31.26367,3.4233z" fill="#000000" stroke="none" stroke-width="0" stroke-linecap="butt"/><path d="M255.34295,122.36355c3.82549,-7.77858 11.82905,-13.13175 21.0829,-13.13175c9.5052,0 17.69124,5.6479 21.38529,13.77085c0.34105,0.74994 -9.42705,-7.4433 -21.33771,-7.57184c-9.90688,-0.10692 -21.13048,6.93274 -21.13048,6.93274z" fill="#ffffff" stroke="#000000" stroke-width="2" stroke-linecap="butt"/><g stroke="none" stroke-width="0" stroke-linecap="butt"><path d="M322.35964,203.45717c0,-2.78444 2.25723,-5.04166 5.04166,-5.04166c2.78443,0 5.04167,2.25723 5.04167,5.04166c0,2.78444 -2.25723,5.04166 -5.04167,5.04166c-2.78443,0 -5.04166,-2.25723 -5.04166,-5.04166z" fill="#673f3c"/><path d="M322.35964,203.45717c0,-0.19937 1.83812,3.99963 4.97226,4.08951c2.50941,0.07197 5.11107,-4.33299 5.11107,-4.08951c0,2.78444 -2.25723,5.04166 -5.04167,5.04166c-2.78443,0 -5.04166,-2.25723 -5.04166,-5.04166z" fill="#5e302e"/></g><g stroke="none" stroke-width="0" stroke-linecap="butt"><path d="M275.95964,203.45717c0,-2.78444 2.25723,-5.04166 5.04167,-5.04166c2.78444,0 5.04166,2.25723 5.04166,5.04166c0,2.78444 -2.25723,5.04166 -5.04166,5.04166c-2.78444,0 -5.04167,-2.25723 -5.04167,-5.04166z" fill="#673f3c"/><path d="M275.95964,203.45717c0,-0.19937 1.83812,3.99963 4.97226,4.08951c2.50941,0.07197 5.11107,-4.33299 5.11107,-4.08951c0,2.78444 -2.25723,5.04166 -5.04166,5.04166c-2.78444,0 -5.04167,-2.25723 -5.04167,-5.04166z" fill="#5e302e"/></g><path d="M309.48581,122.22069c3.82549,-7.77858 11.82905,-13.13175 21.0829,-13.13175c9.5052,0 17.69124,5.6479 21.38529,13.77085c0.34105,0.74994 -10.87345,-7.69864 -21.33771,-7.57185c-10.35786,0.1255 -21.13048,6.93275 -21.13048,6.93275z" fill="#ffffff" stroke="#000000" stroke-width="2" stroke-linecap="butt"/><path d="M276.53057,150.86966c12.77911,-0.35564 21.67876,-9.32179 21.33771,-8.57184c-3.69405,8.12294 -11.88009,13.77085 -21.38529,13.77085c-9.25386,0 -16.85742,-5.35317 -20.6829,-13.13175c0,0 9.11778,8.25592 20.73048,7.93274z" data-paper-data="{&quot;index&quot;:null}" fill="#ffffff" stroke="#000000" stroke-width="2" stroke-linecap="butt"/><path d="M330.81629,150.86966c14.61936,-0.35108 21.67876,-9.32179 21.33771,-8.57185c-3.69405,8.12294 -11.88009,13.77085 -21.38529,13.77085c-9.25386,0 -16.85742,-5.35318 -20.6829,-13.13175c0,0 7.82052,8.24278 20.73048,7.93275z" data-paper-data="{&quot;index&quot;:null}" fill="#ffffff" stroke="#000000" stroke-width="2" stroke-linecap="butt"/><path d="M248.36796,163.66029h110.25c0,0 -14.45709,42.41872 -55.37,42.33336c-42.93568,-0.08958 -54.88,-42.33336 -54.88,-42.33336z" fill="#40171e" stroke="#000000" stroke-width="0" stroke-linecap="butt"/><path d="M256.36796,167.55347h94.25c0,0 -12.35901,34.61668 -47.33444,34.54702c-36.70465,-0.0731 -46.91556,-34.54702 -46.91556,-34.54702z" fill="#ffffff" stroke="#000000" stroke-width="0" stroke-linecap="butt"/><g fill="#000000" stroke="none" stroke-width="0" stroke-linecap="butt"><path d="M299.90964,192.67384v-25.33333h7.33333v25.33333z"/><path d="M282.90964,188.17384v-20.83333h7.33333v22.83333z"/><path d="M266.90964,180.67384v-13.33333h7.33333v17.83333z"/><path d="M317.24297,190.17384v-22.83333h7.33333v20.83333z" data-paper-data="{&quot;index&quot;:null}"/><path d="M333.24297,185.17384v-17.83333h7.33333v13.33333z" data-paper-data="{&quot;index&quot;:null}"/></g><g stroke="none" stroke-width="0" stroke-linecap="butt"><path d="M308.15964,213.83217c0,-3.12962 2.53705,-5.66666 5.66666,-5.66666c3.12962,0 5.66666,2.53705 5.66666,5.66666c0,3.12962 -2.53705,5.66666 -5.66666,5.66666c-3.12962,0 -5.66666,-2.53705 -5.66666,-5.66666z" fill="#673f3c"/><path d="M308.15964,213.83217c0,-0.22408 2.06599,4.49545 5.58866,4.59647c2.8205,0.08088 5.74467,-4.87015 5.74467,-4.59647c0,3.12962 -2.53705,5.66666 -5.66666,5.66666c-3.12962,0 -5.66666,-2.53705 -5.66666,-5.66666z" fill="#5e302e"/></g><g stroke="none" stroke-width="0" stroke-linecap="butt"><path d="M289.65964,213.83217c0,-3.12962 2.53705,-5.66666 5.66666,-5.66666c3.12962,0 5.66666,2.53705 5.66666,5.66666c0,3.12962 -2.53705,5.66666 -5.66666,5.66666c-3.12962,0 -5.66666,-2.53705 -5.66666,-5.66666z" fill="#673f3c"/><path d="M289.65964,213.83217c0,-0.22408 2.06599,4.49545 5.58866,4.59647c2.8205,0.08088 5.74467,-4.87015 5.74467,-4.59647c0,3.12962 -2.53705,5.66666 -5.66666,5.66666c-3.12962,0 -5.66666,-2.53705 -5.66666,-5.66666z" fill="#5e302e"/></g><g stroke="#593637"><path d="M277.5763,305.38626c0,-23.15593 5.22609,-42.04706 25.5,-41.92751c19.87383,0.11719 25.5,18.77159 25.5,41.92751c0,0 -51,0.75871 -51,0z" fill="#311d16" stroke-width="0" stroke-linecap="butt"/><path d="M280.66721,305.57792c0,-20.34915 4.59263,-36.95045 22.4091,-36.84539c17.46488,0.10298 22.40909,16.49624 22.40909,36.84539c0,0 -44.81819,0.66674 -44.81819,0z" fill="#9d89c8" stroke-width="0" stroke-linecap="butt"/><path d="M277.5763,305.38626c0,-23.15593 5.22609,-42.04706 25.5,-41.92751c19.87383,0.11719 25.5,18.77159 25.5,41.92751c0,0 -51,0.75871 -51,0z" fill="none" stroke-width="4" stroke-linecap="butt"/><path d="M303.0763,263.90958v51.53429" fill="none" stroke-width="4" stroke-linecap="round"/><path d="M290.51948,319.51236v-51.53428" fill="none" stroke-width="4" stroke-linecap="round"/><path d="M316.98539,267.97808v51.53428" fill="none" stroke-width="4" stroke-linecap="round"/></g><path d="M274.25222,251.43981c0,0 -2.034,-1.70234 -1.28052,-10.31286c0.70279,-8.03125 3.56624,-10.02047 3.56624,-10.02047c0,0 17.9906,-0.71429 27,-0.71429c9.22366,0 27.71429,0.71429 27.71429,0.71429c0,0 2.20081,1.06639 3.02751,9.55c0.94248,9.67167 -0.88466,10.78334 -0.88466,10.78334c0,0 -20.14286,0.85715 -30,0.85715c-9.85715,0 -29.14285,-0.85715 -29.14285,-0.85715z" fill="#673f3c" stroke="none" stroke-width="NaN" stroke-linecap="butt"/><path d="M274.25222,251.43981c0,0 -0.514,-0.43019 -0.92951,-1.95189c-0.18045,-0.66085 16.52037,-0.23859 30.21523,-0.23859c13.99065,0 30.8559,-0.41742 30.62984,0.52428c-0.33625,1.40065 -0.77269,1.6662 -0.77269,1.6662c0,0 -20.14286,0.85715 -30,0.85715c-9.85715,0 -29.14285,-0.85715 -29.14285,-0.85715z" fill="#5e302e" stroke="none" stroke-width="NaN" stroke-linecap="butt"/><g stroke="none" stroke-width="0" stroke-linecap="butt"><path d="M308.15964,240.63217c0,-2.68778 2.17888,-4.86667 4.86666,-4.86667c2.68778,0 4.86667,2.17888 4.86667,4.86667c0,2.68778 -2.17888,4.86666 -4.86667,4.86666c-2.68778,0 -4.86666,-2.17888 -4.86666,-4.86666z" fill="#673f3c"/><path d="M308.15964,240.63217c0,-0.19244 1.77432,3.86079 4.79967,3.94756c2.42231,0.06947 4.93366,-4.18259 4.93366,-3.94756c0,2.68778 -2.17888,4.86666 -4.86667,4.86666c-2.68778,0 -4.86666,-2.17888 -4.86666,-4.86666z" fill="#5e302e"/></g><g stroke="none" stroke-width="0" stroke-linecap="butt"><path d="M323.15963,240.63217c0,-2.68778 2.17888,-4.86667 4.86667,-4.86667c2.68779,0 4.86667,2.17888 4.86667,4.86667c0,2.68778 -2.17888,4.86666 -4.86667,4.86666c-2.68779,0 -4.86667,-2.17888 -4.86667,-4.86666z" fill="#673f3c"/><path d="M323.15963,240.63217c0,-0.19244 1.77432,3.86079 4.79967,3.94756c2.42231,0.06947 4.93366,-4.18259 4.93366,-3.94756c0,2.68778 -2.17888,4.86666 -4.86667,4.86666c-2.68779,0 -4.86667,-2.17888 -4.86667,-4.86666z" fill="#5e302e"/></g><g stroke="none" stroke-width="0" stroke-linecap="butt"><path d="M274.55964,240.63217c0,-2.68778 2.17888,-4.86667 4.86666,-4.86667c2.68778,0 4.86667,2.17888 4.86667,4.86667c0,2.68778 -2.17888,4.86666 -4.86667,4.86666c-2.68778,0 -4.86666,-2.17888 -4.86666,-4.86666z" fill="#673f3c"/><path d="M274.55964,240.63217c0,-0.19244 1.77432,3.86079 4.79967,3.94756c2.42231,0.06947 4.93366,-4.18259 4.93366,-3.94756c0,2.68778 -2.17888,4.86666 -4.86667,4.86666c-2.68778,0 -4.86666,-2.17888 -4.86666,-4.86666z" fill="#5e302e"/></g><g stroke="none" stroke-width="0" stroke-linecap="butt"><path d="M290.55964,240.63217c0,-2.68778 2.17888,-4.86667 4.86666,-4.86667c2.68778,0 4.86667,2.17888 4.86667,4.86667c0,2.68778 -2.17888,4.86666 -4.86667,4.86666c-2.68778,0 -4.86666,-2.17888 -4.86666,-4.86666z" fill="#673f3c"/><path d="M290.55964,240.63217c0,-0.19244 1.77432,3.86079 4.79967,3.94756c2.42231,0.06947 4.93366,-4.18259 4.93366,-3.94756c0,2.68778 -2.17888,4.86666 -4.86667,4.86666c-2.68778,0 -4.86666,-2.17888 -4.86666,-4.86666z" fill="#5e302e"/></g><path d="M320.42352,46.70571c0,-7.12208 2.49838,-8.62595 18.57142,-8.13249c15.54082,0.47711 17.42858,1.09593 17.42858,7.81041c0,6.81452 -2.13925,8.77781 -17.04762,8.77665c-16.17856,-0.00126 -18.95238,-1.33249 -18.95238,-8.45457z" fill="#8071a5" stroke="none" stroke-width="0" stroke-linecap="butt"/><path d="M382.97114,79.16029c-14.90837,0.00116 -17.04762,-1.96213 -17.04762,-8.77665c0,-6.71449 1.88775,-7.33331 17.42857,-7.81042c16.07304,-0.49345 18.57143,1.01042 18.57143,8.1325c0,7.12208 -2.77382,8.45331 -18.95238,8.45457z" data-paper-data="{&quot;index&quot;:null}" fill="#8071a5" stroke="none" stroke-width="0" stroke-linecap="butt"/></g></g></svg>