<svg version="1.1" xmlns="http://www.w3.org/2000/svg" xmlns:xlink="http://www.w3.org/1999/xlink" width="150.04303" height="267.22501" viewBox="0,0,150.04303,267.22501"><g transform="translate(-238.24774,-53.38751)"><g data-paper-data="{&quot;isPaintingLayer&quot;:true}" fill-rule="nonzero" stroke-linecap="butt" stroke-linejoin="miter" stroke-miterlimit="10" stroke-dasharray="" stroke-dashoffset="0" style="mix-blend-mode: normal"><path d="M251.49292,320.61252v-267.22501h123.18203v267.22501z" fill-opacity="0.01" fill="#000000" stroke="none" stroke-width="0"/><path d="M244.04917,145.34619c0,-1.65654 -5.80143,-1.9233 -5.80143,-1.9233c0,0 6.69584,-8.87746 7.35214,-11.71771c6.65986,-28.82218 23.99043,-56.21969 66.68631,-56.74538c45.68643,-0.56252 68.23702,35.01087 68.23702,70.3864c0,0.66795 3.07779,7.31159 4.43041,10.36634c2.27861,5.14598 3.33715,7.45866 3.33715,7.45866c0,0 -2.64733,-1.66693 -4.82385,-3.56682c-2.14071,-1.86864 -3.80963,-3.97893 -3.99144,-3.01508c-0.43459,2.30399 -0.59561,10.92242 -4.12876,19.9176c-3.49395,8.89536 -10.36285,18.18124 -10.36285,18.18124c0,0 -2.29192,-5.28642 -3.77673,-3.14158c-6.07718,8.77862 -11.2964,15.30957 -11.2964,15.30957c0,0 -2.40974,-4.97718 -4.47106,-3.86765c-9.32569,5.01966 -20.06286,7.91078 -31.65348,7.91078c-12.60656,0 -24.772,-3.56633 -35.27102,-9.52744c-2.72845,-1.54916 -0.82623,4.38789 -0.82623,4.38789c0,0 -7.93843,-5.19677 -13.15685,-11.00681c-6.08759,-6.77777 -9.73663,-14.57056 -12.13914,-18.68944c-0.34082,-0.58431 -4.01999,1.58785 -5.934,2.01254c-2.96082,0.65696 -4.48364,-0.08182 -4.48364,-0.08182c0,0 2.67098,-3.37669 3.55098,-5.15497c0.94364,-1.90688 1.93325,-5.92746 1.93325,-5.92746c0,0 -2.66402,1.90888 -4.05965,2.38502c-1.48595,0.50696 -4.60208,0.57008 -4.60208,0.57008c0,0 4.39229,-5.64339 5.74307,-11.5602c1.27257,-5.57422 -0.4917,-11.39111 -0.4917,-12.96047z" fill="#000000" stroke="#000000" stroke-width="0"/><path d="M278.95923,314.5l15.14285,-131.8421l37.78325,-0.15789l13.57389,132z" fill="#999999" stroke="#999999" stroke-width="2"/><path d="M338.71681,315.5l-9.19048,-131.8421l3.44992,-0.15789l13.57389,132z" fill="#a6a6a6" stroke="#999999" stroke-width="0"/><path d="M277.95923,315.5l15.14285,-131.8421l4.78325,-0.15789l-5.25251,131.99999z" fill="#797a80" stroke="#999999" stroke-width="0"/><path d="M296.6259,315.5l4.14285,-131.8421l4.11658,-0.15789l-4.58584,131.99999z" fill="#797a80" stroke="#999999" stroke-width="0"/><path d="M282.05425,217.96166c-9.06767,-14.29306 12.61628,-34.38498 29.67778,-34.87079c19.98619,-0.56911 39.71411,21.71898 30.66049,35.4886c-13.23944,20.13582 -30.00535,39.82916 -30.00535,39.82916c0,0 -18.01968,-21.03803 -30.33292,-40.44698z" fill="#6d6e73" stroke="none" stroke-width="0"/><path d="M280.65325,210.13649c-9.48788,-12.11102 13.20094,-29.13561 31.05309,-29.54725c20.91238,-0.48222 41.55452,18.40326 32.08134,30.07075c-13.85297,17.06179 -31.39584,33.74865 -31.39584,33.74865c0,0 -18.85474,-17.82627 -31.73859,-34.27215z" fill="#919399" stroke="none" stroke-width="0"/><path d="M280.65325,210.13649c-0.11557,-0.14752 11.85331,-4.2112 11.85331,-4.2112c0,0 9.77123,5.98772 19.89141,5.90109c10.59123,-0.09066 20.56265,-5.42232 20.56265,-5.42232c0,0 10.91461,4.14809 10.82706,4.25593c-13.85297,17.06179 -31.39584,33.74865 -31.39584,33.74865c0,0 -18.85474,-17.82627 -31.73859,-34.27215z" fill="#a6a6a6" stroke="none" stroke-width="0"/><path d="M248.04914,143.84616c0,-33.30185 28.7599,-60.29833 64.23702,-60.29833c35.47712,0 64.23702,26.99649 64.23702,60.29833c0,33.30185 -28.7599,60.29833 -64.23702,60.29833c-35.47712,0 -64.23702,-26.99649 -64.23702,-60.29833z" fill="#000000" stroke="#000000" stroke-width="2"/></g></g></svg>