<svg version="1.1" xmlns="http://www.w3.org/2000/svg" xmlns:xlink="http://www.w3.org/1999/xlink" width="130.47404" height="314.94062" viewBox="0,0,130.47404,314.94062"><g transform="translate(-250.43295,-22.52969)"><g data-paper-data="{&quot;isPaintingLayer&quot;:true}" fill-rule="nonzero" stroke-linecap="butt" stroke-linejoin="miter" stroke-miterlimit="10" stroke-dasharray="" stroke-dashoffset="0" style="mix-blend-mode: normal"><path d="M378.05876,70.2453v267.22501h-123.18203v-267.22501z" data-paper-data="{&quot;index&quot;:null}" fill-opacity="0.01" fill="#000000" stroke="none" stroke-width="0"/><path d="M348.84303,23.52969l-13.57389,184.82812l-37.78325,-0.22108l-15.14285,-184.60702z" data-paper-data="{&quot;index&quot;:null}" fill="#000000" stroke="#000000" stroke-width="2"/><path d="M315.66997,186.71333c35.47712,0 64.23702,26.99648 64.23702,60.29833c0,33.30184 -28.7599,60.29833 -64.23702,60.29833c-35.47712,0 -64.23702,-26.99648 -64.23702,-60.29833c0,-33.30184 28.7599,-60.29833 64.23702,-60.29833z" data-paper-data="{&quot;index&quot;:null}" fill="#000000" stroke="#000000" stroke-width="2"/><g stroke="none" stroke-width="0"><path d="M298.13751,246.85782c0,5.26208 -4.26576,9.52783 -9.52783,9.52783c-5.26207,0 -9.52783,-4.26575 -9.52783,-9.52783c0,-5.26208 4.26576,-9.52784 9.52783,-9.52784c5.26207,0 9.52783,4.26576 9.52783,9.52784z" data-paper-data="{&quot;index&quot;:null}" fill="#ffffff"/><path d="M288.39833,240.4045c3.56407,0 6.45332,2.88925 6.45332,6.45332c0,3.56406 -2.88925,6.45332 -6.45332,6.45332c-3.56407,0 -6.45331,-2.88925 -6.45331,-6.45332c0,-3.56406 2.88924,-6.45332 6.45331,-6.45332z" data-paper-data="{&quot;index&quot;:null}" fill="#000000"/></g><g stroke="none" stroke-width="0"><path d="M352.13751,246.85782c0,5.26208 -4.26575,9.52784 -9.52783,9.52784c-5.26207,0 -9.52783,-4.26575 -9.52783,-9.52784c0,-5.26208 4.26575,-9.52784 9.52783,-9.52784c5.26207,0 9.52783,4.26575 9.52783,9.52784z" data-paper-data="{&quot;index&quot;:null}" fill="#ffffff"/><path d="M342.39833,240.4045c3.56407,0 6.45332,2.88925 6.45332,6.45332c0,3.56407 -2.88925,6.45332 -6.45332,6.45332c-3.56407,0 -6.45331,-2.88925 -6.45331,-6.45332c0,-3.56407 2.88924,-6.45332 6.45331,-6.45332z" data-paper-data="{&quot;index&quot;:null}" fill="#000000"/></g><g fill="#ffffff" stroke="none" stroke-width="0"><path d="M300.0776,210.28185c0,0 6.18753,-3.87885 15.27298,-3.87885c8.84301,0 15.75783,3.63642 15.75783,3.63642c0,0 -3.69923,0.50482 -15.81171,0.48486c-9.85061,-0.01624 -15.2191,-0.24243 -15.2191,-0.24243z"/><path d="M303.95645,201.55443c0,0 2.30868,-4.36371 11.39412,-4.36371c9.32787,0 11.39412,4.36371 11.39412,4.36371c0,0 -4.42006,-1.45457 -11.448,-1.45457c-7.4144,0 -11.34025,1.45457 -11.34025,1.45457z"/></g></g></g></svg>