<svg version="1.1" xmlns="http://www.w3.org/2000/svg" xmlns:xlink="http://www.w3.org/1999/xlink" width="164.59034" height="263.02207" viewBox="0,0,164.59034,263.02207"><defs><linearGradient x1="243.89469" y1="63.4329" x2="243.89469" y2="184.02958" gradientUnits="userSpaceOnUse" id="color-1"><stop offset="0" stop-color="#1a1a1a"/><stop offset="1" stop-color="#808080"/></linearGradient><linearGradient x1="243.89469" y1="122.0302" x2="243.89469" y2="164.18238" gradientUnits="userSpaceOnUse" id="color-2"><stop offset="0" stop-color="#000000"/><stop offset="1" stop-color="#000000" stop-opacity="0"/></linearGradient><radialGradient cx="271.02185" cy="124.16072" r="21.28381" gradientUnits="userSpaceOnUse" id="color-3"><stop offset="0" stop-color="#404040"/><stop offset="1" stop-color="#808080"/></radialGradient><radialGradient cx="216.68852" cy="124.16072" r="21.28381" gradientUnits="userSpaceOnUse" id="color-4"><stop offset="0" stop-color="#404040"/><stop offset="1" stop-color="#808080"/></radialGradient><linearGradient x1="243.56775" y1="165.3851" x2="243.56775" y2="297.3851" gradientUnits="userSpaceOnUse" id="color-5"><stop offset="0" stop-color="#000000"/><stop offset="1" stop-color="#000000" stop-opacity="0"/></linearGradient></defs><g transform="translate(-161.96585,-34.36303)"><g data-paper-data="{&quot;isPaintingLayer&quot;:true}" fill-rule="nonzero" stroke-miterlimit="10" stroke-dasharray="" stroke-dashoffset="0" style="mix-blend-mode: normal"><path d="M175.65767,126.73126c0,-1.65654 -5.80143,-1.9233 -5.80143,-1.9233c0,0 6.69584,-8.87746 7.35214,-11.71771c1.10366,-4.77634 2.50035,-9.51355 4.25697,-14.09583c1.04843,-2.7349 0.21078,-15.01452 0.21078,-15.01452c0,0 6.32986,1.50937 8.09198,-1.06748c5.49818,-8.04031 11.766,-18.55496 21.33797,-23.28501c4.10388,-2.02796 -3.24349,-8.80309 -3.24349,-8.80309c0,0 3.6878,1.21914 5.52194,0.36335c1.8272,-0.85254 3.46377,-2.44609 5.37817,-2.74936c6.1544,-0.97494 12.48726,0.29801 17.61996,-0.34876c7.07925,-0.89205 22.1787,-5.07802 22.1787,-5.07802c0,0 2.46945,11.71912 8.37391,13.25491c2.63103,0.68434 5.3058,5.18178 5.3058,5.18178c0,0 39.89065,38.2082 39.89065,65.28304c0,0.66795 3.07779,7.31159 4.43041,10.36634c2.27861,5.14598 3.33715,7.45866 3.33715,7.45866c0,0 -2.64733,-1.66693 -4.82385,-3.56682c-2.14071,-1.86864 -3.80963,-3.97893 -3.99144,-3.01508c-0.43459,2.30399 -0.59561,10.92242 -4.12876,19.9176c-3.49395,8.89536 -10.36285,18.18124 -10.36285,18.18124c0,0 -2.29192,-5.28642 -3.77673,-3.14158c-6.07718,8.77862 -11.2964,15.30957 -11.2964,15.30957c0,0 -2.40974,-4.97718 -4.47106,-3.86765c-9.32569,5.01966 -20.06286,7.91078 -31.65348,7.91078c-12.60656,0 -24.772,-3.56633 -35.27102,-9.52744c-2.72845,-1.54916 -0.82623,4.38789 -0.82623,4.38789c0,0 -7.93843,-5.19677 -13.15685,-11.00681c-6.08759,-6.77777 -9.73663,-14.57056 -12.13914,-18.68944c-0.34082,-0.58431 -4.01999,1.58785 -5.934,2.01254c-2.96082,0.65696 -4.48364,-0.08182 -4.48364,-0.08182c0,0 2.67098,-3.37669 3.55098,-5.15497c0.94364,-1.90688 1.93325,-5.92746 1.93325,-5.92746c0,0 -2.66402,1.90888 -4.05965,2.38502c-1.48595,0.50696 -4.60208,0.57008 -4.60208,0.57008c0,0 4.39229,-5.64339 5.74307,-11.5602c1.27257,-5.57422 -0.4917,-11.39111 -0.4917,-12.96047z" fill="#000000" stroke="#000000" stroke-width="0" stroke-linecap="butt" stroke-linejoin="miter"/><path d="M313.82805,124.20405c0.34904,1.53006 -0.07733,7.59364 2.40312,12.74522c2.6329,5.46819 8.17031,9.99336 8.17031,9.99336c0,0 -3.05212,0.63151 -4.61361,0.46773c-1.46658,-0.15382 -4.48842,-1.42238 -4.48842,-1.42238c0,0 1.85903,3.69978 3.20314,5.34903c1.25346,1.53803 4.60855,4.23609 4.60855,4.23609c0,0 -1.32037,1.05896 -4.35315,1.07697c-1.96052,0.01164 -6.03066,-1.28784 -6.23298,-0.64236c-1.42626,4.55006 -3.25073,12.95924 -7.67841,20.92119c-3.79552,6.82514 -10.37932,13.65731 -10.37932,13.65731c0,0 0.53413,-6.21141 -1.78143,-4.09423c-8.91026,8.14687 -19.97783,14.32957 -32.26864,17.13337c-11.30032,2.57784 -22.41157,2.14718 -32.6201,-0.67265c-2.25646,-0.62329 -3.49887,4.76517 -3.49887,4.76517c0,0 -6.54103,-5.20658 -14.41844,-12.41371c-1.92465,-1.76089 -2.98342,3.90287 -2.98342,3.90287c0,0 -8.76211,-7.5256 -14.14695,-15.42108c-5.44526,-7.98408 -7.51905,-16.35085 -8.45518,-18.50047c-0.39163,-0.89927 -1.5494,1.52934 -3.22089,3.82729c-1.69946,2.33638 -3.90974,4.55035 -3.90974,4.55035c0,0 0.51766,-2.49018 1.5947,-8.01406c0.63934,-3.27908 2.16244,-10.44083 2.01389,-11.09206c-7.8678,-34.4895 6.20617,-74.18735 50.87344,-83.79994c41.74343,-8.98338 64.73336,13.87347 77.63669,40.49256c1.27156,2.62315 9.77411,9.78905 9.77411,9.78905c0,0 -5.5968,1.55036 -5.22837,3.16541z" data-paper-data="{&quot;index&quot;:null}" fill="#000000" stroke="#000000" stroke-width="0" stroke-linecap="butt" stroke-linejoin="miter"/><path d="M172.12161,131.75379c0.17463,-1.64731 -5.56635,-2.52418 -5.56635,-2.52418c0,0 7.59441,-8.1221 8.54648,-10.87734c9.66124,-27.95947 29.78354,-53.37729 72.29692,-49.39896c45.49115,4.25697 64.16585,42.00946 60.4365,77.18787c-0.07042,0.66423 2.28983,7.59531 3.31288,10.77563c1.72341,5.35752 2.53224,7.76891 2.53224,7.76891c0,0 -2.45685,-1.93673 -4.42095,-4.05549c-1.93178,-2.0839 -3.36893,-4.35837 -3.65134,-3.41906c-0.67506,2.24534 -1.74376,10.79877 -6.20551,19.37135c-4.41224,8.47745 -12.22181,16.98745 -12.22181,16.98745c0,0 -1.72184,-5.49858 -3.42449,-3.52223c-6.96877,8.08903 -12.84742,14.03337 -12.84742,14.03337c0,0 -1.8716,-5.20349 -4.03841,-4.31744c-9.80291,4.00856 -20.78503,5.75162 -32.31106,4.52972c-12.53631,-1.32901 -24.25799,-6.15797 -34.07008,-13.19269c-2.54993,-1.82817 -1.2842,4.27633 -1.2842,4.27633c0,0 -7.34634,-6.00469 -11.92318,-12.33249c-5.33914,-7.38177 -8.14631,-15.51583 -10.10121,-19.86503c-0.27732,-0.61698 -4.16499,1.15521 -6.1131,1.37575c-3.01358,0.34116 -4.45003,-0.55403 -4.45003,-0.55403c0,0 3.01208,-3.07629 4.07464,-4.75189c1.13941,-1.79677 2.54736,-5.69062 2.54736,-5.69062c0,0 -2.85041,1.61739 -4.28847,1.94375c-1.53111,0.34749 -4.63654,0.08174 -4.63654,0.08174c0,0 4.96276,-5.1489 6.92977,-10.89033c1.85313,-5.409 0.71191,-11.37947 0.87736,-12.94009z" fill="#000000" stroke="#000000" stroke-width="0" stroke-linecap="butt" stroke-linejoin="miter"/><path d="M210.56776,297.38509l15.14285,-131.8421l37.78325,-0.15789l13.57389,132z" fill="#666666" stroke="#000000" stroke-width="0" stroke-linecap="butt" stroke-linejoin="miter"/><path d="M210.56776,276.38509l15.14285,-110.8421l18.60882,-0.07985l19.17443,-0.07804l13.57389,111c0,0 -9.90698,-10.66667 -15.58337,-10.66667c-5.32951,0 -17.5,10.66666 -17.5,10.66666c0,0 -1.66862,-7.13941 -4.63863,-7.56268c-3.61629,-0.51537 -8.57495,13.44549 -8.57495,13.44549l-7.10989,-6.06515l-8.17653,8.849z" fill="#000000" stroke="#000000" stroke-width="0" stroke-linecap="butt" stroke-linejoin="miter"/><path d="M244.31943,165.46313l19.17443,-0.07804l13.57389,111l-8.79467,2.06672c0,0 -5.06711,-8.99667 -9.62957,-8.32927c-5.71377,0.83581 -8.82579,15.59588 -8.82579,15.59588l-5.83333,-9.33333z" fill="#666666" stroke="#000000" stroke-width="0.5" stroke-linecap="butt" stroke-linejoin="miter"/><path d="M179.65767,123.73123c0,-33.30185 28.7599,-60.29833 64.23702,-60.29833c35.47712,0 64.23702,26.99649 64.23702,60.29833c0,33.30185 -28.7599,60.29833 -64.23702,60.29833c-35.47712,0 -64.23702,-26.99649 -64.23702,-60.29833z" fill="url(#color-1)" stroke="#000000" stroke-width="0" stroke-linecap="butt" stroke-linejoin="miter"/><path d="M179.65767,123.73123c0,-1.92928 128.47404,-2.58338 128.47404,0c0,15.12905 -5.93573,28.95674 -15.7404,39.54302c-0.84125,0.90831 -95.72397,1.3553 -96.73211,0.28021c-9.96032,-10.62192 -16.00154,-24.56033 -16.00154,-39.82322z" fill="url(#color-2)" stroke="#000000" stroke-width="0" stroke-linecap="butt" stroke-linejoin="miter"/><path d="M179.65767,123.73123c0,-33.30185 28.7599,-60.29833 64.23702,-60.29833c35.47712,0 64.23702,26.99649 64.23702,60.29833c0,0 -128.47404,1.63551 -128.47404,0z" fill="#000000" stroke="#000000" stroke-width="0" stroke-linecap="butt" stroke-linejoin="miter"/><path d="M256.43435,166.54152h-25.10959" fill="none" stroke="#000000" stroke-width="2" stroke-linecap="round" stroke-linejoin="miter"/><path d="" data-paper-data="{&quot;index&quot;:null}" fill="#d0d0d0" stroke="none" stroke-width="0" stroke-linecap="butt" stroke-linejoin="miter"/><path d="" fill="#0012ff" stroke="none" stroke-width="0" stroke-linecap="butt" stroke-linejoin="miter"/><path d="M196.56771,163.30173c0,0 -12.31321,-0.91079 -19.68113,-7.06817c-7.36791,-6.15738 -4.81887,-17.68183 -4.81887,-17.68183" fill="none" stroke="#808080" stroke-width="1" stroke-linecap="round" stroke-linejoin="miter"/><path d="M313.64138,138.55173c0,0 2.54904,11.52445 -4.81887,17.68183c-7.36792,6.15738 -19.68113,7.06817 -19.68113,7.06817" data-paper-data="{&quot;index&quot;:null}" fill="none" stroke="#808080" stroke-width="1" stroke-linecap="round" stroke-linejoin="miter"/><g stroke="#000000" stroke-width="0" stroke-linecap="butt" stroke-linejoin="miter"><path d="M178.42941,108.02979l-7.38022,3c0,0 -0.61983,-76.56595 73.48132,-76.66666c73.73495,-0.10021 72.51868,77.33333 72.51868,77.33333l-8.66374,-4c0,0 0.0045,-64.86172 -63.85494,-66.33334c-61.84366,-1.42516 -66.1011,66.66667 -66.1011,66.66667z" fill="#5e5e5e"/><path d="M161.96585,124.21493c0,-12.51846 9.08054,-22.66667 20.28196,-22.66667c1.01424,0 1.18635,45.33333 0,45.33333c-11.20142,0 -20.28196,-10.14821 -20.28196,-22.66666z" fill="#000000"/><path d="M177.03648,148.21493v-48.33334h10.14098v48.33334z" fill="#808080"/><path d="M306.27422,146.88166c-1.18635,0 -1.01423,-45.33333 0,-45.33333c11.20142,0 20.28197,10.14821 20.28197,22.66667c0,12.51845 -9.08055,22.66666 -20.28197,22.66666z" data-paper-data="{&quot;index&quot;:null}" fill="#808080"/><path d="M300.98207,148.21493v-48.33334h10.14098v48.33334z" fill="#000000"/></g><g stroke="none" stroke-linecap="butt" stroke-linejoin="miter"><g><path d="M226.3709,89.84894c0,0 1.46775,-9.38812 2.83674,-14.00072c1.31429,-4.42829 5.21978,-13.14451 5.21978,-13.14451c0,0 20.53168,4.77509 30.87608,7.84523c10.87651,3.22808 32.86674,11.07322 32.86674,11.07322c0,0 -1.3129,8.86637 -2.65225,13.37911c-1.34613,4.53555 -5.40428,13.76611 -5.40428,13.76611c0,0 -20.24451,-4.42614 -30.50722,-7.47204c-10.94139,-3.24734 -33.23559,-11.44641 -33.23559,-11.44641z" fill="#808080" stroke-width="0"/><text transform="translate(233.10556,78.63483) rotate(16.52994) scale(0.21361,0.37777) skewX(-0.00101)" font-size="40" xml:space="preserve" data-paper-data="{&quot;index&quot;:null}" fill="#000000" fill-rule="nonzero" stroke="none" stroke-width="1" stroke-linecap="butt" stroke-linejoin="miter" stroke-miterlimit="10" stroke-dasharray="" stroke-dashoffset="0" font-family="Sans Serif" font-weight="normal" text-anchor="start" style="mix-blend-mode: normal"><tspan x="0" dy="0">ウーウーカルト</tspan></text><path d="M256.47093,81.84961c0.54422,0.32143 0.2228,0.86564 0.2228,0.86564l-0.44147,0.72925c-0.98007,0.81597 -1.07537,1.58418 -1.7313,2.23787l0.19112,0.22956l-0.49285,0.41033c-0.13757,0.11797 -0.32336,0.17474 -0.51057,0.14491c-0.146,0.41144 -0.31671,0.80003 -0.54994,1.17983l0.15962,0.09428l-0.37192,0.62971c-0.14132,0.25165 -0.44239,0.38145 -0.73076,0.29586c-0.21366,-0.06341 -0.36867,-0.22974 -0.42697,-0.4288l-0.1892,-0.61276l0.03716,-0.01148l-0.06012,-0.09433c0.03933,-1.20422 0.20553,-2.1518 0.54818,-3.30631c0,0 0.17984,-0.60591 0.78576,-0.42609c0.10311,0.03061 0.18345,0.07354 0.24582,0.12374l0.09093,-0.30635c0.09933,-0.33463 0.45111,-0.5254 0.78575,-0.42609c0.18551,0.05506 0.3268,0.1877 0.39897,0.35199c0.29449,-0.3825 0.63639,-0.7209 0.85758,-0.90507l0.3158,-0.55294c0,0 0.32143,-0.54422 0.86563,-0.22279z" fill="#000000" stroke-width="0.5"/><path d="M253.8187,75.01493c0.28371,0.0842 0.39515,0.26182 0.43344,0.4269c0.39018,-0.1515 0.68667,0.20463 0.68667,0.20463c0.48594,0.7777 0.97809,-0.13173 1.80482,0.46929c0.17427,0.1267 0.2671,0.5754 0.28243,0.88564c0.23375,-0.1253 0.72481,-0.15669 0.9873,-0.15673l0.49857,0.12829c0,0 0.60593,0.17984 0.42609,0.78576c-0.17984,0.60591 -0.78575,0.42609 -0.78575,0.42609l-0.19392,-0.07724c-0.47684,-0.06024 -0.95223,0.5419 -1.39657,0.35865c-0.45403,-0.18724 -0.16628,-1.10254 -0.5906,-1.34985c-0.67906,-0.39577 -1.16408,0.17112 -1.93706,-0.59253c-0.32954,1.18989 -0.5726,2.39926 -1.04813,3.46867c-0.12819,0.34828 -0.28521,0.68687 -0.47229,1.00615l-0.01558,0.05246l0.14353,0.08478l-0.37192,0.62971c-0.14132,0.25165 -0.44239,0.38147 -0.73076,0.29588c-0.33463,-0.09931 -0.5254,-0.45112 -0.42609,-0.78575l0.20552,-0.69249l0.03306,0.00982l-0.00656,-0.08251c0.13176,-0.22309 0.25167,-0.45506 0.35406,-0.69411c0.12404,-1.2761 0.99876,-3.24597 1.23121,-4.02919l0.10277,-0.34625c0,0 0.17982,-0.60593 0.78575,-0.42609z" fill="#000000" stroke-width="0.5"/><path d="M254.47014,87.73485c0.09933,-0.33463 0.45112,-0.5254 0.78576,-0.42609c0.33463,0.09931 0.5254,0.45112 0.42608,0.78576c-0.09933,0.33463 -0.45111,0.5254 -0.78575,0.42608c-0.33463,-0.09931 -0.52542,-0.45111 -0.42609,-0.78575z" fill="#000000" stroke-width="0.5"/><path d="M252.14134,89.86922c0.09933,-0.33463 0.45111,-0.5254 0.78575,-0.42609c0.33463,0.09931 0.52542,0.45112 0.42609,0.78575c-0.09933,0.33463 -0.45112,0.5254 -0.78575,0.42609c-0.33463,-0.09931 -0.5254,-0.45112 -0.42609,-0.78576z" fill="#000000" stroke-width="0.5"/><path d="M249.39896,76.63393c0.48573,-0.40441 0.89014,0.08134 0.89014,0.08134l0.56087,0.85402c-0.35552,0.77567 -0.74021,1.4681 -1.1772,2.1488l0.01719,0.00509l-0.20553,0.69249c-0.09933,0.33463 -0.45111,0.5254 -0.78575,0.42609c-0.21366,-0.06341 -0.36868,-0.22974 -0.42698,-0.42882l-0.1892,-0.61276l0.04208,-0.01299l-0.06504,-0.09282c0.01323,-0.4046 0.21206,-0.79816 0.17705,-1.20146c-0.05064,-0.5834 -1.19944,0.64413 -1.71726,0.37063c-0.27662,-0.1461 -0.57952,-1.24933 -0.69294,-1.61666c0,0 -0.18648,-0.60391 0.41744,-0.79039c0.6039,-0.18648 0.79039,0.41744 0.79039,0.41744c0.23612,0.76464 1.72987,0.26172 2.23165,0.88514c0.02653,0.03295 0.04637,0.09079 0.06088,0.16631c0.09027,-0.09253 0.18016,-0.17829 0.26323,-0.25457l-0.27232,-0.14674c0,0 -0.40441,-0.48573 0.08133,-0.89014z" fill="#000000" stroke-width="0.5"/><path d="M241.13263,73.41906c-0.64828,-0.6843 -1.38543,0.11144 -2.05601,-0.14233c-1.05254,-0.39831 -0.55567,-1.15773 -1.39137,-1.56285c0,0 -0.54423,-0.32144 -0.2228,-0.86564c0.32143,-0.54422 0.86563,-0.22279 0.86563,-0.22279c0.50745,0.33044 0.50323,1.46544 1.10822,1.43944c1.12798,-0.0485 1.66232,-0.22977 2.38055,0.40057c0.09008,-0.01675 0.19573,-0.01267 0.319,0.0239c0.60591,0.17984 0.42609,0.78575 0.42609,0.78575l-0.20553,0.69249c-0.018,0.06069 -0.03641,0.12048 -0.05516,0.1794c-0.00398,0.01369 -0.00852,0.0279 -0.01364,0.04246c-0.88464,2.73149 -2.57604,3.57589 -4.14642,5.56069c-0.37449,0.47332 -0.07206,1.89395 -0.74064,2.19405c-2.08666,0.93664 -1.72378,-0.99802 -1.6774,-2.06228c0,0 0.02751,-0.63144 0.65894,-0.60394c0.24808,0.0108 0.39445,0.11483 0.48073,0.23715c0.06634,-0.20632 0.16223,-0.403 0.29641,-0.56106c1.55797,-1.83516 3.09708,-2.5756 3.92478,-5.15022z" fill="#000000" stroke-width="0.5"/><path d="M235.88149,83.72482c0.09933,-0.33463 0.45112,-0.5254 0.78575,-0.42609c0.33463,0.09931 0.52542,0.45112 0.42609,0.78575c-0.09933,0.33463 -0.45112,0.5254 -0.78576,0.42609c-0.33463,-0.09931 -0.5254,-0.45112 -0.42609,-0.78575z" fill="#000000" stroke-width="0.5"/><path d="M261.73315,81.67994c-0.38087,-0.02151 -0.69104,-0.01264 -0.86759,0.04585c0.02886,0.10027 0.03139,0.22202 -0.01215,0.36876c-0.17984,0.60591 -0.78576,0.42609 -0.78576,0.42609l-0.62474,-0.68481c0.29874,-3.05435 3.11541,-1.17655 4.95559,-0.85044c0.55515,0.09839 2.2297,0.08746 2.539,0.69988c1.28477,2.54391 -1.84465,1.70086 -2.75526,1.29812c-0.61324,-0.27122 -1.36145,-0.39914 -2.00476,-0.59007c0,0 -0.55729,-0.16539 -0.44433,-0.71339z" fill="#000000" stroke-width="0.5"/><path d="M268.28184,90.70386c-0.09933,0.33463 -0.45112,0.5254 -0.78575,0.42608c-0.32506,-0.09647 -0.51438,-0.43118 -0.43391,-0.757c-0.17626,-0.15796 -0.25608,-0.40893 -0.18427,-0.65089c0.06852,-0.23083 0.34254,-1.15413 0.41105,-1.38496c0,0 0.16226,-0.54674 0.69788,-0.44737l0.027,-0.09098c0.09933,-0.33463 0.45112,-0.5254 0.78576,-0.42609c0.06829,0.02027 0.13061,0.05106 0.18569,0.09007c0.04086,-0.33264 0.09713,-0.72589 0.18392,-1.01804l0.05093,-0.17162c0,0 0.17982,-0.60591 0.78575,-0.42609c0.60591,0.17984 0.42609,0.78575 0.42609,0.78575l-0.05183,0.17462c-0.17563,0.58227 -0.51129,1.84865 -0.92705,2.14681c-0.10642,0.07632 -0.30121,0.08386 -0.49442,0.04951c-0.14205,0.30676 -0.37897,0.57074 -0.66274,0.78861l0.16267,0.29998l-0.23017,0.12481c0.07958,0.14328 0.10372,0.31722 0.05341,0.48674z" fill="#000000" stroke-width="0.5"/><path d="M271.70667,82.9564c-0.55563,0.30129 -0.85691,-0.25432 -0.85691,-0.25432l0.11245,0.01843c-0.4274,-0.25243 -0.8548,-0.50485 -1.28219,-0.75729c0,0 -0.54422,-0.32143 -0.22279,-0.86564c0.32143,-0.54422 0.86563,-0.22278 0.86563,-0.22278c0.4274,0.25243 0.85479,0.50484 1.28219,0.75727l0.22791,0.29927c0.00794,-0.08721 0.03774,-0.18329 0.09934,-0.28757c0.32143,-0.54422 0.86563,-0.22279 0.86563,-0.22279c0.62506,0.36918 1.13473,0.6994 1.8331,0.90112l0.37471,0.95886c0,0 -0.17984,0.60593 -0.78575,0.42609c-0.2288,-0.06791 -0.34558,-0.19657 -0.40228,-0.33043c-0.58768,-0.22989 -1.08977,-0.52888 -1.66261,-0.86722c0,0 -0.05108,-0.03017 -0.1127,-0.08767c0.00403,0.17525 -0.06144,0.38592 -0.3357,0.53464z" fill="#000000" stroke-width="0.5"/><path d="M272.24134,84.34422c0.09931,-0.33463 0.45111,-0.5254 0.78575,-0.42609c0.33464,0.09931 0.5254,0.45112 0.42609,0.78575c-0.09931,0.33463 -0.45112,0.5254 -0.78575,0.42609c-0.33464,-0.09931 -0.5254,-0.45111 -0.42609,-0.78575z" fill="#000000" stroke-width="0.5"/><path d="M278.4309,84.04884c0.63169,-0.021 0.65269,0.61068 0.65269,0.61068l0.01672,0.64927c-0.17657,1.71046 -1.06913,4.18379 -2.27792,5.81418l-0.04401,0.14827l0.14354,0.08477l-0.37192,0.62971c-0.14131,0.25165 -0.44242,0.38146 -0.73078,0.29588c-0.24361,-0.0723 -0.411,-0.27842 -0.44569,-0.51431c-0.0867,-0.00822 -0.18211,-0.03802 -0.2856,-0.09914c-0.54422,-0.32143 -0.2228,-0.86564 -0.2228,-0.86564c0.14716,-0.24309 0.29433,-0.48618 0.44149,-0.72925l0.10186,-0.04626l-0.02488,-0.0299l0.49285,-0.41032c0.09166,-0.07862 0.20477,-0.13005 0.32542,-0.1468c0.45146,-1.45406 1.57306,-3.36893 1.63962,-4.24621l-0.02123,-0.49223c0,0 -0.02101,-0.63169 0.61069,-0.6527z" fill="#000000" stroke-width="0.5"/><path d="M273.85957,93.48951c0.09931,-0.33463 0.45112,-0.5254 0.78575,-0.42609c0.33464,0.09931 0.5254,0.45112 0.42609,0.78575c-0.09931,0.33463 -0.45111,0.5254 -0.78575,0.42609c-0.33464,-0.09931 -0.5254,-0.45112 -0.42609,-0.78576z" fill="#000000" stroke-width="0.5"/><path d="M278.86507,91.55775l0.55427,0.01472c0.6829,-1.0847 2.18193,-2.0125 3.01401,-3.42137c0,0 0.32143,-0.54422 0.86563,-0.22279c0.54422,0.32143 0.22279,0.86564 0.22279,0.86564c-0.51561,0.87301 -1.06568,1.86142 -1.75054,2.60119c-0.43314,0.46786 -1.20299,0.46821 -1.30012,0.69458l0.00043,0.00002l-0.03179,0.72972c-0.00121,0.05515 -0.00968,0.11104 -0.02613,0.16647c-0.09931,0.33463 -0.45112,0.5254 -0.78576,0.42609c-0.12731,-0.03779 -0.23381,-0.11213 -0.31142,-0.20816l-0.41107,-0.49374l0.22745,-0.18936c-0.06346,-0.09372 -0.12022,-0.19049 -0.16837,-0.28972c-0.32686,-0.2425 -0.19825,-0.6759 -0.19825,-0.6759l0.02604,0.00069c-0.00012,-0.00716 -0.00018,-0.01431 -0.00017,-0.02149z" fill="#000000" stroke-width="0.5"/><path d="M278.58523,94.7037c0.09931,-0.33463 0.45112,-0.5254 0.78575,-0.42609c0.33464,0.09931 0.5254,0.45112 0.42609,0.78576c-0.09931,0.33463 -0.45111,0.5254 -0.78575,0.42609c-0.33464,-0.09931 -0.5254,-0.45112 -0.42609,-0.78575z" fill="#000000" stroke-width="0.5"/><path d="M280.25943,93.50525c0.09931,-0.33463 0.45111,-0.5254 0.78575,-0.42609c0.33464,0.09931 0.5254,0.45112 0.42609,0.78575c-0.09931,0.33463 -0.45112,0.5254 -0.78576,0.42609c-0.33464,-0.09931 -0.5254,-0.45112 -0.42608,-0.78576z" fill="#000000" stroke-width="0.5"/><path d="M288.32874,81.86662c0.60593,0.17984 0.42609,0.78576 0.42609,0.78576l-0.10277,0.34624c-0.43742,1.47382 -0.74384,3.42154 -1.11084,5.41418c0.13817,0.0543 0.22853,0.13883 0.22853,0.13883c0.42255,0.39649 0.80414,0.75963 1.03701,1.13043c0.12639,-0.04946 0.2696,-0.05877 0.4098,-0.01715c0.28836,0.08558 0.46988,0.35863 0.45102,0.64663l-0.01959,0.44959c0.05864,0.00026 0.11819,0.00876 0.17723,0.02628c0.33464,0.09931 0.5254,0.45112 0.42609,0.78575c-0.08,0.26958 -0.32385,0.44578 -0.59058,0.45219c0.02119,0.09972 0.01848,0.20601 -0.01257,0.31065l-0.18903,0.63691c-0.05805,1.13043 -0.95075,4.32446 -2.30584,1.82795c-0.22189,-0.4088 0.42635,-1.7506 1.00365,-2.74833l-0.49874,0.08826c-0.09735,0.01934 -0.2007,0.01598 -0.30248,-0.01423c-0.30695,-0.09111 -0.49284,-0.39462 -0.44487,-0.70246c-0.3803,1.53447 -0.86057,2.95953 -1.53739,4.05885l0.26132,0.15433l-0.37192,0.62971c-0.14131,0.25165 -0.44239,0.38147 -0.73075,0.29589c-0.28836,-0.08558 -0.46989,-0.35865 -0.45104,-0.64664l0.03182,-0.73064l0.03022,0.00131l-0.02211,-0.07825c0.05709,-0.19662 0.11417,-0.39321 0.17126,-0.58983c0.0033,-0.72143 0.50648,-1.71037 0.66827,-2.25548c0.95106,-3.20442 1.54108,-6.46177 2.47972,-9.62437l0.10275,-0.34622c0,0 0.17982,-0.60593 0.78575,-0.42609zM287.1378,91.02937l0.49374,-0.41109c0.44787,-0.16588 0.02933,-0.54028 -0.35266,-0.84278c-0.10566,0.52002 -0.21844,1.03643 -0.34173,1.54163c0.03966,-0.11689 0.11061,-0.21501 0.20065,-0.28776z" fill="#000000" stroke-width="0.5"/></g><path d="M234.34362,65.57118c0.29795,-1.00393 1.35335,-1.57621 2.35726,-1.27826c1.00392,0.29796 1.57621,1.35333 1.27826,2.35726c-0.29795,1.00393 -1.35335,1.57621 -2.35726,1.27826c-1.00392,-0.29796 -1.57621,-1.35333 -1.27826,-2.35726z" fill="#000000" stroke-width="0.5"/><path d="M293.16714,83.29335c0.29795,-1.00393 1.35335,-1.57621 2.35726,-1.27826c1.00392,0.29796 1.57621,1.35333 1.27826,2.35726c-0.29795,1.00393 -1.35333,1.57621 -2.35726,1.27826c-1.00392,-0.29796 -1.57621,-1.35333 -1.27826,-2.35726z" fill="#000000" stroke-width="0.5"/><path d="M287.07937,104.69368c0.29795,-1.00393 1.35335,-1.57621 2.35726,-1.27826c1.00392,0.29796 1.57621,1.35333 1.27826,2.35726c-0.29795,1.00393 -1.35333,1.57621 -2.35726,1.27826c-1.00392,-0.29796 -1.57621,-1.35333 -1.27826,-2.35726z" fill="#000000" stroke-width="0.5"/><path d="M228.49822,87.04344c0.29795,-1.00393 1.35335,-1.57621 2.35726,-1.27826c1.00392,0.29796 1.57621,1.35333 1.27826,2.35726c-0.29795,1.00393 -1.35333,1.57621 -2.35725,1.27826c-1.00392,-0.29796 -1.57623,-1.35333 -1.27826,-2.35726z" fill="#000000" stroke-width="0.5"/></g><path d="M195.02401,123.86076l-3.46741,-2.6" fill="none" stroke="#000000" stroke-width="2" stroke-linecap="round" stroke-linejoin="miter"/><path d="M296.1566,120.26076l-4.04531,3.4" fill="none" stroke="#000000" stroke-width="2" stroke-linecap="round" stroke-linejoin="miter"/><path d="M249.73804,124.16072c0,0 9.52909,-16.14732 21.28381,-16.14732c11.75472,0 21.28381,16.14732 21.28381,16.14732c0,0 -9.52909,16.14732 -21.28381,16.14732c-11.75472,0 -21.28381,-16.14732 -21.28381,-16.14732z" fill="url(#color-3)" stroke="#000000" stroke-width="0" stroke-linecap="butt" stroke-linejoin="miter"/><path d="M257.6424,123.91085c0,-7.44563 6.03587,-13.4815 13.4815,-13.4815c7.44563,0 13.4815,6.03587 13.4815,13.4815c0,7.44563 -6.03587,13.4815 -13.4815,13.4815c-7.44563,0 -13.4815,-6.03588 -13.4815,-13.4815z" fill="#000000" stroke="none" stroke-width="0" stroke-linecap="butt" stroke-linejoin="miter"/><path d="M195.40471,124.16072c0,0 9.52909,-16.14732 21.28381,-16.14732c11.75472,0 21.28381,16.14732 21.28381,16.14732c0,0 -9.52909,16.14732 -21.28381,16.14732c-11.75472,0 -21.28381,-16.14732 -21.28381,-16.14732z" fill="url(#color-4)" stroke="#000000" stroke-width="0" stroke-linecap="butt" stroke-linejoin="miter"/><path d="M203.30906,123.91085c0,-7.44563 6.03587,-13.4815 13.4815,-13.4815c7.44563,0 13.4815,6.03588 13.4815,13.4815c0,7.44563 -6.03588,13.4815 -13.4815,13.4815c-7.44563,0 -13.4815,-6.03588 -13.4815,-13.4815z" fill="#000000" stroke="none" stroke-width="0" stroke-linecap="butt" stroke-linejoin="miter"/><path d="M243.81766,220.68539c1.73875,-3.9537 5.49141,-6.70169 9.8515,-6.70169c6.01092,0 10.88934,5.20732 10.88934,11.62346c0,12.63617 -12.79389,16.55443 -20.74084,29.37927c-8.40557,-12.90429 -20.74073,-16.3265 -20.74073,-29.37927c0,-6.41613 4.87842,-11.62346 10.88933,-11.62346c4.36009,0 8.11275,2.748 9.8514,6.70169z" fill="none" stroke="#000000" stroke-width="2" stroke-linecap="butt" stroke-linejoin="round"/><path d="M243.81766,254.98642c-8.40557,-12.90429 -20.74073,-16.3265 -20.74073,-29.37927c0,-6.41613 4.87842,-11.62346 10.88933,-11.62346c4.36009,0 10.07362,6.70169 10.07362,6.70169" fill="none" stroke="#666666" stroke-width="2" stroke-linecap="butt" stroke-linejoin="round"/><path d="M235.60617,228.50366c0,3.01632 -0.92986,5.46154 -2.07692,5.46154c-1.14705,0 -2.07693,-2.44522 -2.07693,-5.46154c0,-3.01632 0.92987,-5.46153 2.07693,-5.46153c1.14705,0 2.07692,2.44521 2.07692,5.46153z" fill="#666666" stroke="none" stroke-width="0" stroke-linecap="butt" stroke-linejoin="miter"/><path d="M244.86212,237.62118l-3.62366,4.7l-3.10967,-4.03333" fill="none" stroke="#666666" stroke-width="1" stroke-linecap="round" stroke-linejoin="miter"/><path d="M210.31776,297.38509l15.14285,-131.8421l37.78325,-0.15789l13.83432,111.01433l-2.35088,0.65705l2.09045,20.32862z" fill="url(#color-5)" stroke="#000000" stroke-width="0" stroke-linecap="butt" stroke-linejoin="miter"/><path d="M299.92991,153.2352c-11.00576,18.37842 -31.97583,30.79437 -56.03522,30.79437c-22.93974,0 -43.07102,-11.28724 -54.43466,-28.26794c-0.27337,-0.40849 26.91622,-4.71045 54.72066,-5.24176c27.56675,-0.52677 55.74922,2.71533 55.74922,2.71533z" fill="#000000" stroke="#808080" stroke-width="1" stroke-linecap="butt" stroke-linejoin="miter"/><path d="M277.84133,174.93163c-9.84948,5.76628 -21.48357,9.09794 -33.94665,9.09794c-11.92647,0 -23.0938,-3.05094 -32.66457,-8.36674c-0.72123,-0.40059 7.97763,-18.93828 32.95057,-19.34296c25.77752,-0.41772 33.66065,18.61176 33.66065,18.61176z" fill="#808080" stroke="#808080" stroke-width="0" stroke-linecap="butt" stroke-linejoin="miter"/><path d="M255.14464,228.50366c0,3.01632 -0.92987,5.46154 -2.07692,5.46154c-1.14705,0 -2.07692,-2.44522 -2.07692,-5.46154c0,-3.01632 0.92987,-5.46153 2.07692,-5.46153c1.14705,0 2.07692,2.44521 2.07692,5.46153z" fill="#000000" stroke="none" stroke-width="0" stroke-linecap="butt" stroke-linejoin="miter"/><path d="M250.39546,238.28785l-3.10967,4.03333l-3.62366,-4.7" data-paper-data="{&quot;index&quot;:null}" fill="none" stroke="#000000" stroke-width="1" stroke-linecap="round" stroke-linejoin="miter"/><path d="M270.5316,224.95403c0,0 -23.6959,-6.68003 -22.70965,-9.51479c1.52764,-4.39089 20.5556,2.27386 20.5556,2.27386c0,0 -24.36739,-6.12404 -23.13518,-9.78628c1.14445,-3.40145 22.10777,3.43739 22.10777,3.43739c0,0 -20.19546,-6.82335 -18.53464,-10.10869c1.52691,-3.02045 21.69102,4.61674 21.69102,4.61674c0,0 -15.2065,-5.51859 -14.37893,-7.46814c1.2997,-3.06177 10.79787,0.68161 14.19457,1.87307c3.3967,1.19146 7.33057,5.10157 7.74104,12.95691c0.45591,8.72508 -7.53161,11.71994 -7.53161,11.71994z" fill="#000000" stroke="#ffffff" stroke-width="1" stroke-linecap="butt" stroke-linejoin="miter"/><path d="M215.41424,239.56067c0,0 23.6959,6.68003 22.70965,9.51479c-1.52764,4.39089 -20.5556,-2.27386 -20.5556,-2.27386c0,0 24.36739,6.12404 23.13518,9.78628c-1.14445,3.40145 -22.10777,-3.43739 -22.10777,-3.43739c0,0 20.19546,6.82335 18.53464,10.10869c-1.52691,3.02045 -21.69102,-4.61674 -21.69102,-4.61674c0,0 15.2065,5.51859 14.37893,7.46814c-1.2997,3.06177 -10.79787,-0.68161 -14.19457,-1.87307c-3.3967,-1.19146 -7.33057,-5.10157 -7.74104,-12.95691c-0.45591,-8.72508 7.53161,-11.71994 7.53161,-11.71994z" data-paper-data="{&quot;index&quot;:null}" fill="#000000" stroke="#ffffff" stroke-width="1" stroke-linecap="butt" stroke-linejoin="miter"/><path d="M256.4677,172.83506c0,0 -1.71578,6.32409 -7.22052,6.25988c-4.83829,-0.05643 -4.7796,-15.65536 -4.7796,-15.65536c0,0 0.85006,15.36125 -2.42769,15.16301c-5.23249,-0.31647 -7.77218,-5.16753 -7.77218,-5.16753" fill="none" stroke="#000000" stroke-width="1" stroke-linecap="round" stroke-linejoin="miter"/><path d="M241.66771,163.13506c0,-1.71208 1.38792,-2.1 3.1,-2.1c1.71208,0 3.1,0.38792 3.1,2.1c0,1.71208 -1.38792,4.1 -3.1,4.1c-1.71208,0 -3.1,-2.38792 -3.1,-4.1z" fill="#000000" stroke="none" stroke-width="0" stroke-linecap="butt" stroke-linejoin="miter"/><path d="M266.50267,154.58544c6.70995,7.80195 9.02281,15.77137 1.2965,24.78625c-6.95613,8.11625 -16.66921,6.76957 -21.31397,5.23543c-4.64476,-1.53414 -25.5684,-6.65641 -24.42853,-11.03036c0.72579,-2.78507 21.67273,3.8843 21.67273,3.8843c0,0 -28.04095,-8.49983 -27.17995,-13.01772c0.9365,-4.9141 28.3363,4.48786 28.3363,4.48786c0,0 -28.23926,-10.02206 -26.65058,-14.63294c1.71048,-4.96441 33.02163,8.65007 33.02163,8.65007c0,0 -26.0114,-8.60452 -24.01472,-14.59835c1.28905,-3.86963 32.33838,8.58945 32.33838,8.58945c0,0 -13.15168,-11.37906 -9.00386,-12.83926c4.6272,-1.62897 8.93791,2.35984 15.92607,10.48527z" data-paper-data="{&quot;index&quot;:null}" fill="#000000" stroke="#ffffff" stroke-width="1" stroke-linecap="butt" stroke-linejoin="miter"/></g></g></svg>