<svg version="1.1" xmlns="http://www.w3.org/2000/svg" xmlns:xlink="http://www.w3.org/1999/xlink" width="150.54303" height="239.54679" viewBox="0,0,150.54303,239.54679"><defs><linearGradient x1="316.95925" y1="181.50001" x2="316.95925" y2="313.50001" gradientUnits="userSpaceOnUse" id="color-1"><stop offset="0" stop-color="#000000"/><stop offset="1" stop-color="#286f6f"/></linearGradient><linearGradient x1="317.03619" y1="82.54783" x2="317.03619" y2="203.14449" gradientUnits="userSpaceOnUse" id="color-2"><stop offset="0" stop-color="#1a1a1a"/><stop offset="1" stop-color="#808080"/></linearGradient><linearGradient x1="322.5842" y1="83.1059" x2="322.5842" y2="182.1059" gradientUnits="userSpaceOnUse" id="color-3"><stop offset="0" stop-color="#0a102b"/><stop offset="1" stop-color="#1a2b77"/></linearGradient><linearGradient x1="318.34764" y1="216.89696" x2="318.34764" y2="252.21455" gradientUnits="userSpaceOnUse" id="color-4"><stop offset="0" stop-color="#0a102b"/><stop offset="1" stop-color="#1a2b77"/></linearGradient><linearGradient x1="316.34219" y1="254.55985" x2="316.34219" y2="287.09644" gradientUnits="userSpaceOnUse" id="color-5"><stop offset="0" stop-color="#0a102b"/><stop offset="1" stop-color="#1a2b77"/></linearGradient></defs><g transform="translate(-243.99774,-73.95322)"><g data-paper-data="{&quot;isPaintingLayer&quot;:true}" fill-rule="nonzero" stroke-linejoin="miter" stroke-miterlimit="10" stroke-dasharray="" stroke-dashoffset="0" style="mix-blend-mode: normal"><path d="M243.99774,138.92289c0,0 7.19584,-5.37746 7.85214,-8.21771c6.65986,-28.82218 23.99043,-56.21969 66.68631,-56.74538c45.68643,-0.56252 68.23702,35.01087 68.23702,70.3864c0,0.66795 3.07779,7.31159 4.43041,10.36634c2.27861,5.14598 3.33715,7.45866 3.33715,7.45866c0,0 -2.64733,-1.66693 -4.82385,-3.56682c-2.14071,-1.86864 -3.80963,-3.97893 -3.99144,-3.01508c-0.43459,2.30399 -0.59561,10.92242 -4.12876,19.9176c-3.49395,8.89536 -10.36285,18.18124 -10.36285,18.18124c0,0 -2.29192,-5.28642 -3.77673,-3.14158c-6.07718,8.77862 -11.2964,15.30957 -11.2964,15.30957c0,0 -2.40974,-4.97718 -4.47106,-3.86765c-9.32569,5.01966 -20.06286,7.91078 -31.65348,7.91078c-12.60656,0 -24.772,-3.56633 -35.27102,-9.52744c-2.72845,-1.54916 -0.82623,4.38789 -0.82623,4.38789c0,0 -7.93843,-5.19677 -13.15685,-11.00681c-6.08759,-6.77777 -9.73663,-14.57056 -12.13914,-18.68944c-0.34082,-0.58431 -4.01999,1.58785 -5.934,2.01254c-2.96082,0.65696 -4.48364,-0.08182 -4.48364,-0.08182c0,0 2.67098,-3.37669 3.55098,-5.15497c0.94364,-1.90688 1.93325,-5.92746 1.93325,-5.92746c0,0 -2.66402,1.90888 -4.05965,2.38502c-1.48595,0.50696 -4.60208,0.57008 -4.60208,0.57008c0,0 5.39229,-2.64339 6.74307,-8.5602c0.84311,-3.69305 -0.01255,-11.27642 -0.6861,-16.54308c-0.34309,-2.68273 -0.63894,-4.88777 -0.63894,-5.41739z" fill="#000000" stroke="#000000" stroke-width="0" stroke-linecap="butt"/><path d="M283.70926,313.5l15.14285,-131.8421l37.78325,-0.15789l13.57389,132z" fill="url(#color-1)" stroke="#000000" stroke-width="0" stroke-linecap="butt"/><path d="M252.79917,142.84616c0,-33.30185 28.7599,-60.29833 64.23702,-60.29833c35.47712,0 64.23702,26.99649 64.23702,60.29833c0,33.30185 -28.7599,60.29833 -64.23702,60.29833c-35.47712,0 -64.23702,-26.99649 -64.23702,-60.29833z" fill="url(#color-2)" stroke="#000000" stroke-width="0" stroke-linecap="butt"/><path d="M266.34938,143.27563c0,-12.968 10.51265,-23.48065 23.48065,-23.48065c12.968,0 23.48065,10.51265 23.48065,23.48065c0,12.968 -10.51265,23.48065 -23.48065,23.48065c-12.968,0 -23.48065,-10.51265 -23.48065,-23.48065z" fill="#808080" stroke="#000000" stroke-width="0" stroke-linecap="butt"/><path d="M273.41477,143c0,-9.12808 7.39976,-16.52784 16.52783,-16.52784c9.12808,0 16.52784,7.39977 16.52784,16.52784c0,9.12808 -7.39977,16.52784 -16.52784,16.52784c-9.12808,0 -16.52783,-7.39977 -16.52783,-16.52784z" fill="#000000" stroke="none" stroke-width="0" stroke-linecap="butt"/><path d="M304.46626,182.65643h25.10959" fill="none" stroke="#000000" stroke-width="2" stroke-linecap="round"/><path d="M344.08847,166.75627c-12.968,0 -23.48065,-10.51265 -23.48065,-23.48065c0,-12.968 10.51265,-23.48065 23.48065,-23.48065c12.968,0 23.48065,10.51265 23.48065,23.48065c0,12.968 -10.51265,23.48065 -23.48065,23.48065z" data-paper-data="{&quot;index&quot;:null}" fill="#808080" stroke="#000000" stroke-width="0" stroke-linecap="butt"/><path d="M343.9759,159.52784c-9.12807,0 -16.52783,-7.39977 -16.52783,-16.52784c0,-9.12808 7.39977,-16.52784 16.52783,-16.52784c9.12807,0 16.52783,7.39977 16.52783,16.52784c0,9.12808 -7.39977,16.52784 -16.52783,16.52784z" data-paper-data="{&quot;index&quot;:null}" fill="#000000" stroke="none" stroke-width="0" stroke-linecap="butt"/><path d="M278.98705,114.46716c0,0 6.70895,-5.16922 11.79721,-6.36355c5.08827,-1.19433 12.33413,0.69937 12.33413,0.69937c0,0 -8.03812,-0.06028 -11.96762,0.86207c-4.10648,0.96389 -12.16372,4.80211 -12.16372,4.80211z" fill="#000000" stroke="none" stroke-width="0" stroke-linecap="butt"/><path d="M342.92157,109.66506c-3.9295,-0.92235 -11.96762,-0.86207 -11.96762,-0.86207c0,0 7.24586,-1.8937 12.33413,-0.69937c5.08826,1.19433 11.79721,6.36355 11.79721,6.36355c0,0 -8.05724,-3.83822 -12.16372,-4.80211z" data-paper-data="{&quot;index&quot;:null}" fill="#000000" stroke="none" stroke-width="0" stroke-linecap="butt"/><path d="M259.82156,111.63723c11.42496,-22.68233 31.40973,-33.07142 60.56473,-32.85267c24.16321,0.18129 39.14424,9.27509 47.64651,17.23625c0.95139,0.89084 -11.16905,5.58091 -18.25999,7.52146c-15.29703,4.18628 -30.35723,6.25195 -30.35723,6.25195l6.65013,-11.17032c0,0 -23.70536,7.34319 -34.98048,9.59002c-11.17264,2.22641 -31.26367,3.4233 -31.26367,3.4233z" fill="#000000" stroke="none" stroke-width="0" stroke-linecap="butt"/><path d="M250.83116,131.26416c0,0 3.16755,-11.65383 5.35569,-17.06188c1.87839,-4.64247 6.98628,-13.4416 6.98628,-13.4416c0,0 35.3779,7.98378 53.36707,7.46704c18.39856,-0.5285 55.82375,-10.60352 55.82375,-10.60352l13.80279,29.95139c0,0 -46.81951,7.6943 -69.10983,8.30182c-22.80957,0.62168 -66.22575,-4.61326 -66.22575,-4.61326z" data-paper-data="{&quot;index&quot;:null}" fill="#379898" stroke="none" stroke-width="0" stroke-linecap="butt"/><path d="M251.93597,159.9821c0,0 -1.22591,-4.70644 -2.52636,-10.29362c-1.16055,-4.98612 0.238,-10.93355 0.238,-10.93355l122.73484,-41.76873c0,0 6.47121,8.77169 8.66524,13.68782c2.37453,5.32058 5.0833,17.11834 5.0833,17.11834z" data-paper-data="{&quot;index&quot;:null}" fill="#308484" stroke="none" stroke-width="0" stroke-linecap="butt"/><path d="M259.25087,107.77256c0,0 5.37691,-9.53708 9.08892,-13.79582c3.4328,-3.93841 12.41108,-10.87085 12.41108,-10.87085c0,0 29.57184,26.61801 46.45357,38.52351c18.09021,12.75775 58.7131,35.64315 58.7131,35.64315c0,0 -0.47424,8.78365 -1.48514,12.85455c-1.04362,4.20268 -4.68153,11.97879 -4.68153,11.97879c0,0 -45.27971,-22.31501 -66.10568,-35.16201c-19.21005,-11.85018 -54.39432,-39.17132 -54.39432,-39.17132z" data-paper-data="{&quot;index&quot;:null}" fill="url(#color-3)" stroke="none" stroke-width="0" stroke-linecap="butt"/><g fill="#000000" stroke="none" stroke-width="0" stroke-linecap="butt"><path d="M362.68439,143.84578c4.68235,2.76237 9.06672,5.31101 12.73762,7.42875c1.65147,0.95273 -4.80741,26.2731 -6.57749,25.38029c-4.0381,-2.03677 -8.92782,-4.52187 -14.19533,-7.23934z" data-paper-data="{&quot;index&quot;:null}"/><path d="M327.20444,121.62941c4.36663,3.07948 10.04612,6.74904 16.15025,10.54439c1.3564,0.84337 -9.82906,26.10048 -10.88407,25.52655c-7.06518,-3.84353 -13.68904,-7.58796 -18.82543,-10.75646z" data-paper-data="{&quot;index&quot;:null}"/><path d="M294.2183,94.9517c4.10488,3.54929 8.79826,7.55164 13.56154,11.49988c0.27115,0.22476 -16.71427,25.1137 -17.1012,24.83477c-4.69695,-3.3859 -9.34444,-6.8101 -13.56679,-9.95838c-1.25141,-0.93308 17.10646,-26.37627 17.10646,-26.37627z" data-paper-data="{&quot;index&quot;:null}"/></g><path d="M342.89926,245.71121c0,0 -2.61138,2.27092 -5.9529,3.50715c-3.65274,1.35137 -8.17796,1.69378 -11.1183,2.09052c-7.63198,1.02979 -20.58314,0.98826 -29.48385,0.80101c-0.92821,-0.01953 -3.87939,-24.96303 -1.85106,-25.13514c8.0055,-0.67927 19.30125,-1.86688 25.8639,-3.56641c4.91229,-1.27214 11.74058,-3.86546 17.47137,-6.51138z" data-paper-data="{&quot;index&quot;:null}" fill="url(#color-4)" stroke="none" stroke-width="0" stroke-linecap="butt"/><g data-paper-data="{&quot;index&quot;:null}" fill="#000000" stroke="none" stroke-width="0" stroke-linecap="butt"><path d="M301.65386,252.12202c-3.11225,-0.03238 -8.33166,-0.0947 -10.71387,-0.15952c-1.04424,-0.02841 -0.27428,-24.73667 0.70939,-24.81326c2.18651,-0.17025 4.79952,-0.3902 7.59329,-0.65998z" data-paper-data="{&quot;index&quot;:null}"/><path d="M325.98418,251.23937c-3.07555,0.41499 -7.0149,0.656 -11.2049,0.78361c-0.62567,0.01905 -4.79495,-26.76317 -3.98225,-26.87847c3.65736,-0.51889 7.07117,-1.12071 9.71614,-1.80568z" data-paper-data="{&quot;index&quot;:null}"/><path d="M344.43496,245.63643c-2.57099,0.80917 -3.87313,2.46763 -6.72396,3.26767c-0.02858,0.00802 -6.12933,-29.29277 -5.98276,-29.35548c2.93155,-1.25432 6.49605,-3.1169 9.03392,-4.32423c0,0 4.43478,30.17222 3.6728,30.41204z" data-paper-data="{&quot;index&quot;:null}"/></g><path d="M293.38568,254.55985c6.71546,1.86986 14.63512,3.54335 20.24566,4.1589c7.49549,0.82236 20.14251,0.51524 29.0819,0.13658c2.26495,-0.09594 2.65745,25.01907 1.63535,25.16041c-9.80108,1.35531 -24.09611,3.09846 -32.67436,3.08056c-6.3282,-0.01321 -15.72714,-1.17602 -23.46165,-2.35009c-2.20299,-0.33441 5.17311,-30.18636 5.17311,-30.18636z" data-paper-data="{&quot;index&quot;:null}" fill="url(#color-5)" stroke="none" stroke-width="0" stroke-linecap="butt"/><g data-paper-data="{&quot;index&quot;:null}" fill="#000000" stroke="none" stroke-width="0" stroke-linecap="butt"><path d="M337.39759,258.99821c3.12448,-0.09971 6.04204,-0.22504 8.48139,-0.34361c1.09742,-0.05335 2.98794,24.64608 1.83902,24.81148c-2.62104,0.37732 -5.79882,0.81837 -9.23074,1.25946z" data-paper-data="{&quot;index&quot;:null}"/><path d="M313.44878,258.67037c3.02094,0.33143 6.87868,0.47941 10.99322,0.51317c0.91429,0.0075 0.23089,27.10536 -0.46279,27.1687c-4.64542,0.42413 -9.03067,0.7029 -12.48755,0.69568z" data-paper-data="{&quot;index&quot;:null}"/><path d="M289.90131,253.28732c2.97914,0.86334 7.18785,2.24134 10.60858,3.09953c0.17103,0.04291 -2.2765,29.89131 -2.30924,29.88712c-3.2651,-0.41845 -8.99461,-1.40955 -11.95203,-1.87384c-0.87652,-0.13761 3.65269,-31.11281 3.65269,-31.11281z" data-paper-data="{&quot;index&quot;:null}"/></g></g></g></svg>