<svg version="1.1" xmlns="http://www.w3.org/2000/svg" xmlns:xlink="http://www.w3.org/1999/xlink" width="161.45221" height="241.19727" viewBox="0,0,161.45221,241.19727"><defs><linearGradient x1="320.00006" y1="175.50001" x2="320.00006" y2="307.50001" gradientUnits="userSpaceOnUse" id="color-1"><stop offset="0" stop-color="#000000"/><stop offset="1" stop-color="#321f18"/></linearGradient><linearGradient x1="321.10304" y1="230.71686" x2="321.10304" y2="261.967" gradientUnits="userSpaceOnUse" id="color-2"><stop offset="0" stop-color="#242424"/><stop offset="1" stop-color="#3d3d3d"/></linearGradient><linearGradient x1="319.26686" y1="267.30034" x2="319.26686" y2="302.05034" gradientUnits="userSpaceOnUse" id="color-3"><stop offset="0" stop-color="#000000"/><stop offset="1" stop-color="#131313"/></linearGradient><linearGradient x1="319.26685" y1="272.30034" x2="319.26685" y2="307.05034" gradientUnits="userSpaceOnUse" id="color-4"><stop offset="0" stop-color="#0f0f0f"/><stop offset="1" stop-color="#282828"/></linearGradient><linearGradient x1="321.51686" y1="270.967" x2="321.51686" y2="305.717" gradientUnits="userSpaceOnUse" id="color-5"><stop offset="0" stop-color="#242424"/><stop offset="1" stop-color="#3d3d3d"/></linearGradient><linearGradient x1="309.40729" y1="211.38368" x2="309.40729" y2="277.55034" gradientUnits="userSpaceOnUse" id="color-6"><stop offset="0" stop-color="#1a1a1a"/><stop offset="1" stop-color="#808080"/></linearGradient><linearGradient x1="328.14106" y1="210.98846" x2="328.14106" y2="277.217" gradientUnits="userSpaceOnUse" id="color-7"><stop offset="0" stop-color="#1a1a1a"/><stop offset="1" stop-color="#808080"/></linearGradient><linearGradient x1="319.99766" y1="166.54611" x2="319.99766" y2="216.90864" gradientUnits="userSpaceOnUse" id="color-8"><stop offset="0" stop-color="#0d0706"/><stop offset="1" stop-color="#40251e"/></linearGradient><linearGradient x1="319.99766" y1="171.53891" x2="319.99766" y2="211.32438" gradientUnits="userSpaceOnUse" id="color-9"><stop offset="0" stop-color="#000000"/><stop offset="1" stop-color="#261910"/></linearGradient><linearGradient x1="320.07699" y1="76.54783" x2="320.07699" y2="197.14449" gradientUnits="userSpaceOnUse" id="color-10"><stop offset="0" stop-color="#1a1a1a"/><stop offset="1" stop-color="#808080"/></linearGradient><linearGradient x1="321.875" y1="66.30274" x2="321.875" y2="121.05916" gradientUnits="userSpaceOnUse" id="color-11"><stop offset="0" stop-color="#291a4a"/><stop offset="1" stop-color="#452c7d"/></linearGradient></defs><g transform="translate(-246.53854,-66.30274)"><g data-paper-data="{&quot;isPaintingLayer&quot;:true}" fill-rule="nonzero" stroke-linejoin="miter" stroke-miterlimit="10" stroke-dasharray="" stroke-dashoffset="0" style="mix-blend-mode: normal"><path d="M252.33997,138.34619c0,-1.65654 -5.80143,-1.9233 -5.80143,-1.9233c0,0 6.69584,-8.87746 7.35214,-11.71771c6.65986,-28.82218 23.99043,-56.21969 66.68631,-56.74538c45.68643,-0.56252 68.23702,35.01087 68.23702,70.3864c0,0.66795 3.07779,7.31159 4.43041,10.36634c2.27861,5.14598 3.33715,7.45866 3.33715,7.45866c0,0 -2.64733,-1.66693 -4.82385,-3.56682c-2.14071,-1.86864 -3.80963,-3.97893 -3.99144,-3.01508c-0.1234,0.6542 3.11251,12.35397 3.11251,12.35397c0,0 -3.88243,-5.59196 -4.24491,-3.4712c-0.56084,3.2813 -1.45964,7.12243 -2.99636,11.03483c-3.49395,8.89536 -10.36285,18.18124 -10.36285,18.18124c0,0 -2.29192,-5.28642 -3.77673,-3.14158c-6.07718,8.77862 -11.2964,15.30957 -11.2964,15.30957c0,0 -2.40974,-4.97718 -4.47106,-3.86765c-9.32569,5.01966 -20.06286,7.91078 -31.65348,7.91078c-4.0426,0 -30.78143,-5.16413 -30.78143,-5.16413l-6.40983,3.79175l-5.57596,-5.41037l-6.28543,1.71369c0,0 0.632,-2.56889 -6.21838,-6.45838c-2.72845,-1.54916 -10.82623,8.88789 -10.82623,8.88789c0,0 4.87771,-19.04041 2.70401,-32.69625c-2.39417,-15.04094 -6.34377,-17.75481 -6.34377,-30.21728z" fill="#000000" stroke="#000000" stroke-width="0" stroke-linecap="butt"/><path d="M286.75006,307.5l15.14285,-131.8421l37.78325,-0.15789l13.57389,132z" fill="url(#color-1)" stroke="#000000" stroke-width="0" stroke-linecap="butt"/><g><g fill="#432a76" stroke="#000000" stroke-width="0" stroke-linecap="butt"><path d="M332.15509,234.90568l0.88371,-7.69411l2.20498,-0.00921l0.79215,7.70332z"/><path d="M330.35122,224.94658c0,-1.94345 1.67839,-3.51892 3.74878,-3.51892c2.07039,0 3.74878,1.57547 3.74878,3.51892c0,1.94345 -1.67839,3.51892 -3.74878,3.51892c-2.07039,0 -3.74878,-1.57548 -3.74878,-3.51892z"/></g><path d="M324.95715,228.16667c0,-5.04946 4.09339,-9.14286 9.14285,-9.14286c5.04946,0 9.14286,4.0934 9.14286,9.14286c0,5.04946 -4.09339,9.14285 -9.14286,9.14285c-5.04946,0 -9.14285,-4.09339 -9.14285,-9.14285z" fill="none" stroke="#432a76" stroke-width="2" stroke-linecap="butt"/><path d="M327.88672,234.37995l12.49094,-12.49094" fill="none" stroke="#432a76" stroke-width="2" stroke-linecap="round"/></g><path d="M292.95903,251.96701c0,0 -2.54195,-0.60918 -1.25505,-11.11701c1.26079,-10.29459 3.70565,-10.13299 3.70565,-10.13299c0,0 17.94938,8.089 26.96788,11.02799c8.60653,2.80473 25.96502,6.22201 25.96502,6.22201c0,0 1.91622,2.16706 2.40278,6.85362c0.58975,5.68046 -1.17748,7.14638 -1.17748,7.14638c0,0 -19.20242,-1.64213 -28.70266,-3.32036c-9.36749,-1.65477 -27.90614,-6.67964 -27.90614,-6.67964z" fill="url(#color-2)" stroke="none" stroke-width="0" stroke-linecap="butt"/><path d="M321.81135,292.17561c-10.7629,3.43806 -33.60862,9.87473 -33.60862,9.87473c0,0 -1.87229,-1.39573 -1.63505,-9.49637c0.2022,-6.90456 2.84289,-9.75362 2.84289,-9.75362c0,0 20.1336,-3.77319 30.09723,-6.35783c9.95357,-2.58202 29.6544,-9.14217 29.6544,-9.14217c0,0 1.99419,0.52409 2.68369,7.2923c0.62531,6.13804 -1.03294,7.4577 -1.03294,7.4577c0,0 -18.94199,6.91186 -29.00161,10.12527z" data-paper-data="{&quot;index&quot;:null}" fill="url(#color-3)" stroke="none" stroke-width="0" stroke-linecap="butt"/><path d="M321.99281,297.17561c-11.53043,3.43806 -36.00533,9.87473 -36.00533,9.87473c0,0 -2.0058,-1.39573 -1.75165,-9.49637c0.21662,-6.90456 3.04564,-9.75362 3.04564,-9.75362c0,0 21.56937,-3.77319 32.24353,-6.35783c10.66338,-2.58202 31.76913,-9.14217 31.76913,-9.14217c0,0 2.13639,0.52409 2.87507,7.2923c0.66989,6.13804 -1.1066,7.4577 -1.1066,7.4577c0,0 -20.29279,6.91186 -31.06977,10.12527z" data-paper-data="{&quot;index&quot;:null}" fill="url(#color-4)" stroke="none" stroke-width="0" stroke-linecap="butt"/><path d="M289.08697,285.717c0,0 -1.70469,-1.31966 -1.06187,-7.4577c0.70882,-6.76821 2.75887,-7.2923 2.75887,-7.2923c0,0 20.25276,6.56015 30.48519,9.14217c10.24277,2.58463 30.94042,6.35783 30.94042,6.35783c0,0 2.71468,2.84906 2.92255,9.75362c0.24388,8.10064 -1.68086,9.49638 -1.68086,9.49638c0,0 -23.48576,-6.43667 -34.55019,-9.87474c-10.34144,-3.21341 -29.8141,-10.12526 -29.8141,-10.12526z" fill="url(#color-5)" stroke="none" stroke-width="0" stroke-linecap="butt"/><path d="M310.18056,277.55034c0,0 -6.08627,-0.9093 -6.21179,-19.19235c-0.07772,-11.3213 3.04015,-22.54252 4.57769,-31.17728c1.68204,-9.44625 1.80076,-15.79703 1.80076,-15.79703h4.5c0,0 -0.15312,7.89836 -1.4933,16.41841c-1.5288,9.71913 -4.30101,20.74939 -4.88261,30.57057c-0.05254,12.90075 5.54258,16.84435 5.54258,16.84435z" fill="url(#color-6)" stroke="none" stroke-width="0" stroke-linecap="butt"/><path d="M323.53402,274.88368c0,0 4.26179,-17.27693 4.20925,-30.17767c-1.02078,-17.23747 -4.37591,-31.83748 -4.37591,-31.83748l4.5,-1.81818c0,0 5.17222,15.12681 5.04511,33.64099c-0.12552,18.28305 -4.54512,32.52568 -4.54512,32.52568z" data-paper-data="{&quot;index&quot;:null}" fill="url(#color-7)" stroke="none" stroke-width="0" stroke-linecap="butt"/><path d="M320.2013,216.90864c0,0 -38.49464,-13.10263 -38.86129,-31.66944c-0.36665,-18.56681 17.03957,-18.31677 38.05434,-18.6574c24.61714,-0.39903 38.95055,2.35211 39.26475,18.2631c0.3142,15.91099 -38.45781,32.06374 -38.45781,32.06374z" fill="url(#color-8)" stroke="none" stroke-width="0" stroke-linecap="butt"/><path d="M320.17048,211.32438c0,0 -32.66984,-10.35083 -32.981,-25.01827c-0.31116,-14.66744 14.46123,-14.46991 32.29616,-14.739c20.8922,-0.31522 33.05675,1.85813 33.32341,14.42751c0.26666,12.56939 -32.63857,25.32976 -32.63857,25.32976z" fill="url(#color-9)" stroke="none" stroke-width="0" stroke-linecap="butt"/><path d="M384.32408,121.99652v-16.33333c0,0 23.66667,-0.62027 23.66667,10.66666c0,11.28693 -23.66667,5.66667 -23.66667,5.66667z" fill="#1e134b" stroke="none" stroke-width="0" stroke-linecap="butt"/><path d="M255.83997,136.84616c0,-33.30185 28.7599,-60.29833 64.23702,-60.29833c35.47712,0 64.23702,26.99649 64.23702,60.29833c0,33.30185 -28.7599,60.29833 -64.23702,60.29833c-35.47712,0 -64.23702,-26.99649 -64.23702,-60.29833z" fill="url(#color-10)" stroke="#000000" stroke-width="0" stroke-linecap="butt"/><path d="M254.37963,137.32986l4,-20.66667c0,0 41.31127,-17 63.66667,-17c20.74654,0 62.33333,16.33334 62.33333,16.33334l2.66667,22z" fill="#000000" stroke="none" stroke-width="0" stroke-linecap="butt"/><path d="M386.71297,129.66319l-2.68677,22c0,0 -41.90026,5.58334 -62.80318,5.58334c-22.52391,0 -64.14657,-6.25 -64.14657,-6.25l-4.03015,-20.66667z" data-paper-data="{&quot;index&quot;:null}" fill-opacity="0.49994" fill="#000000" stroke="none" stroke-width="0" stroke-linecap="butt"/><path d="M269.39018,137.27563c0,-12.968 10.51265,-23.48065 23.48065,-23.48065c12.968,0 23.48065,10.51265 23.48065,23.48065c0,12.968 -10.51265,23.48065 -23.48065,23.48065c-12.968,0 -23.48065,-10.51265 -23.48065,-23.48065z" fill="#808080" stroke="#000000" stroke-width="0" stroke-linecap="butt"/><path d="M276.45557,137c0,-9.12808 7.39976,-16.52784 16.52783,-16.52784c9.12808,0 16.52784,7.39977 16.52784,16.52784c0,9.12808 -7.39977,16.52784 -16.52784,16.52784c-9.12808,0 -16.52783,-7.39977 -16.52783,-16.52784z" fill="#000000" stroke="none" stroke-width="0" stroke-linecap="butt"/><path d="M332.61665,176.65643c0,0 -11.47474,2.52837 -18.70706,1.34058c-8.47931,-1.39259 -16.73587,-5.00724 -16.73587,-5.00724" fill="none" stroke="#000000" stroke-width="2" stroke-linecap="round"/><path d="M347.12926,160.75627c-12.968,0 -23.48065,-10.51265 -23.48065,-23.48065c0,-12.968 10.51265,-23.48065 23.48065,-23.48065c12.968,0 23.48065,10.51265 23.48065,23.48065c0,12.968 -10.51265,23.48065 -23.48065,23.48065z" data-paper-data="{&quot;index&quot;:null}" fill="#808080" stroke="#000000" stroke-width="0" stroke-linecap="butt"/><path d="M347.0167,153.52784c-9.12807,0 -16.52783,-7.39977 -16.52783,-16.52784c0,-9.12808 7.39977,-16.52784 16.52783,-16.52784c9.12807,0 16.52783,7.39977 16.52783,16.52784c0,9.12808 -7.39977,16.52784 -16.52783,16.52784z" data-paper-data="{&quot;index&quot;:null}" fill="#000000" stroke="none" stroke-width="0" stroke-linecap="butt"/><path d="M282.02785,108.46716c0,0 6.70895,-5.16922 11.79721,-6.36355c5.08827,-1.19433 12.33413,0.69937 12.33413,0.69937c0,0 -8.03812,-0.06028 -11.96762,0.86207c-4.10648,0.96389 -12.16372,4.80211 -12.16372,4.80211z" fill="#000000" stroke="none" stroke-width="0" stroke-linecap="butt"/><path d="M345.96236,103.66506c-3.9295,-0.92235 -11.96762,-0.86207 -11.96762,-0.86207c0,0 7.24586,-1.8937 12.33413,-0.69937c5.08826,1.19433 11.79721,6.36355 11.79721,6.36355c0,0 -8.05724,-3.83822 -12.16372,-4.80211z" data-paper-data="{&quot;index&quot;:null}" fill="#000000" stroke="none" stroke-width="0" stroke-linecap="butt"/><path d="M323.42709,72.78456c29.96045,-0.71213 39.14424,9.27509 47.64651,17.23625c0.95139,0.89084 -11.16905,5.58091 -18.25999,7.52146c-15.29703,4.18628 -31.0239,14.25195 -31.0239,14.25195l-63.59402,1.50966c0,0 20.88037,-39.46515 65.23139,-40.51932z" fill="#000000" stroke="none" stroke-width="0" stroke-linecap="butt"/><path d="M269.39017,137.02563c0,-12.968 10.51265,-23.48065 23.48065,-23.48065c12.968,0 23.48065,10.51265 23.48065,23.48065c0,0 -46.96131,1.23155 -46.96131,0z" fill="#000000" stroke="#000000" stroke-width="0.5" stroke-linecap="butt"/><path d="M323.64862,137.02563c0,-12.968 10.51265,-23.48065 23.48065,-23.48065c12.968,0 23.48065,10.51265 23.48065,23.48065c0,1.2138 -46.96131,0 -46.96131,0z" data-paper-data="{&quot;index&quot;:null}" fill="#000000" stroke="#000000" stroke-width="0.5" stroke-linecap="butt"/><path d="M255.86806,117.3585l1.25,-4.25c0,0 20.17146,-2.90063 31.27755,-3.50422c11.84614,-0.64381 37.72245,-1.24578 37.72245,-1.24578l0.75,4.75c0,0 -26.23468,0.54896 -38.22621,1.26677c-11.66619,0.69833 -32.77379,2.98323 -32.77379,2.98323z" fill="#1c1348" stroke="none" stroke-width="0" stroke-linecap="butt"/><path d="M254.29167,121.05916c0,0 8.49647,-55.44184 67.58334,-54.75c66.14097,0.77443 67.58333,54.75 67.58333,54.75c0,0 -7.80001,-3.87816 -22.77391,-5.35341c-12.03382,-1.18559 -43.03689,-1.35476 -43.03689,-1.35476c0,0 1.01071,-30.83373 -25.69295,-28.47987c-28.72096,2.53168 -43.66291,35.18804 -43.66291,35.18804z" fill="url(#color-11)" stroke="none" stroke-width="0" stroke-linecap="butt"/><path d="M249.93519,118.66319c0,0 7.60067,-8.47191 11.14166,-11.82974c2.62551,-2.48971 8.19168,-6.5036 8.19168,-6.5036l43.66666,6.33334c0,0 -18.09488,4.59121 -28.27106,13.73592c-5.3514,4.80896 -18.52261,15.33097 -18.52261,15.33097c0,0 2.37527,12.4868 3.88776,18.19272c2.3353,8.81001 0.27371,15.89337 0.27371,15.89337l-4.04377,3.30244c0,0 -6.41855,-12.71512 -8.2559,-18.28389c-1.59915,-4.84681 -2.15313,-13.26456 -2.15313,-13.26456l-4.24832,-0.90697l4.0963,-20.04444z" fill="#000000" stroke="none" stroke-width="0" stroke-linecap="butt"/></g></g></svg>