<svg version="1.1" xmlns="http://www.w3.org/2000/svg" xmlns:xlink="http://www.w3.org/1999/xlink" width="155.16267" height="267.6052" viewBox="0,0,155.16267,267.6052"><g transform="translate(-244.18793,-51.00732)"><g data-paper-data="{&quot;isPaintingLayer&quot;:true}" fill-rule="nonzero" stroke-linejoin="miter" stroke-miterlimit="10" stroke-dasharray="" stroke-dashoffset="0" style="mix-blend-mode: normal"><path d="M257.43311,318.61252v-267.22501h123.18203v267.22501z" fill-opacity="0.01" fill="#000000" stroke="none" stroke-width="0" stroke-linecap="butt"/><g stroke="none" stroke-linecap="butt"><path d="M385.12535,94.2475c0.39231,-1.54066 4.20658,-6.05813 8.15963,-5.45327c3.95305,0.60486 6.16133,4.34705 6.06243,8.25283c-0.04009,1.58333 -0.44927,5.2445 -1.50497,6.29024c-0.76202,0.75483 -2.85737,-1.21217 -2.85737,-1.21217c0,0 -1.6585,1.32588 -2.91585,1.1335c-0.80528,-0.12322 -2.14343,-1.47833 -2.14343,-1.47833c0,0 -2.28586,1.24822 -3.18246,0.56371c-1.66917,-1.27432 -2.04837,-6.40637 -1.61799,-8.09651z" data-paper-data="{&quot;index&quot;:null}" fill="#e1e1e1" stroke-width="0.5"/><path d="M371.22573,108.69391c-4.31252,-3.42493 -4.54566,-10.30982 -0.52074,-15.37781c4.02492,-5.06799 10.78375,-6.39996 15.09626,-2.97503c4.31252,3.42493 4.54566,10.30982 0.52074,15.37781c-4.02492,5.06799 -10.78375,6.39996 -15.09627,2.97503z" fill="#ececec" stroke-width="0.5"/><path d="M383.99291,94.94438c-4.95637,-1.41116 -7.83032,-6.57307 -6.41915,-11.52944c1.41116,-4.95637 6.57307,-7.83032 11.52944,-6.41915c4.95637,1.41116 7.83032,6.57307 6.41915,11.52944c-1.41116,4.95637 -6.57307,7.83032 -11.52944,6.41916z" fill="#f5f5f5" stroke-width="0.5"/><path d="M371.40912,98.15972c-1.12268,0.10958 -2.40825,-2.15549 -2.40825,-2.15549c0,0 -1.85125,0.44704 -2.60067,0.12761c-1.17012,-0.49875 -1.8815,-2.49939 -1.8815,-2.49939c0,0 -2.8172,0.56831 -3.06734,-0.4747c-0.34655,-1.44497 1.23411,-4.77261 2.03403,-6.1396c1.97326,-3.37212 5.8215,-5.38991 9.50031,-3.82185c3.67881,1.56806 4.54153,7.41715 4.06349,8.93341c-0.52442,1.66336 -3.54998,5.82602 -5.64006,6.03002z" fill="#e1e1e1" stroke-width="0.5"/><path d="M388.55543,92.01306c0,0 0.56211,-1.69601 2.17257,-1.71798c1.61046,-0.02197 2.89611,1.34816 2.89611,1.34816l-0.65652,3.41404z" fill="#d4d4d4" stroke-width="0"/><path d="M388.62003,86.39553c0.62259,0.02442 1.07736,1.31697 1.07736,1.31697c0,0 -0.48319,-0.56822 -1.10577,-0.59264c-0.62259,-0.02442 -1.1488,0.50419 -1.1488,0.50419c0,0 0.55463,-1.25294 1.17722,-1.22852z" fill="#000000" stroke-width="0"/><path d="M394.24354,87.44609c0.46719,0.03291 0.58,1.28843 0.58,1.28843c0,0 -0.26415,-0.55618 -0.73134,-0.58909c-0.46719,-0.03291 -0.96052,0.46992 -0.96052,0.46992c0,0 0.64467,-1.20217 1.11186,-1.16926z" fill="#000000" stroke-width="0"/></g><g stroke="none" stroke-linecap="butt"><path d="M280.30903,76.30155c-1.02099,0.47959 -2.99148,-1.22346 -2.99148,-1.22346c0,0 -1.59428,1.04176 -2.40741,0.99203c-1.26961,-0.07765 -2.61049,-1.72405 -2.61049,-1.72405c0,0 -2.46368,1.47982 -3.04899,0.58102c-0.81089,-1.24519 -0.4372,-4.91016 -0.14181,-6.46621c0.72866,-3.83849 3.67783,-7.02955 7.66943,-6.78544c3.9916,0.2441 6.76516,5.46555 6.82306,7.05432c0.06352,1.74291 -1.39155,6.67896 -3.2923,7.5718z" data-paper-data="{&quot;index&quot;:null}" fill="#e1e1e1" stroke-width="0.5"/><path d="M280.00772,79.68925c-2.86313,-5.80405 -1.18042,-12.48421 3.75843,-14.92054c4.93885,-2.43633 11.26361,0.29375 14.12674,6.09781c2.86313,5.80405 1.18042,12.48421 -3.75843,14.92054c-4.93885,2.43633 -11.26361,-0.29375 -14.12674,-6.0978z" fill="#ececec" stroke-width="0.5"/><path d="M274.64827,60.93972c-0.33198,-5.14264 3.56783,-9.5807 8.71046,-9.91268c5.14264,-0.33198 9.5807,3.56782 9.91268,8.71046c0.33198,5.14264 -3.56782,9.58071 -8.71046,9.91269c-5.14264,0.33198 -9.5807,-3.56783 -9.91268,-8.71047z" fill="#f5f5f5" stroke-width="0.5"/><path d="M291.94265,68.36633c-0.14685,-1.58303 1.93234,-7.11774 5.85943,-7.87304c3.92709,-0.7553 7.26206,2.03009 8.4782,5.74304c0.493,1.50516 1.33481,5.09165 0.69075,6.43077c-0.46489,0.9666 -3.09839,-0.18417 -3.09839,-0.18417c0,0 -1.11807,1.80514 -2.36715,2.04538c-0.8,0.15386 -2.51498,-0.67426 -2.51498,-0.67426c0,0 -1.73516,1.94227 -2.80934,1.59794c-1.99977,-0.64104 -4.07741,-5.34903 -4.23852,-7.08565z" fill="#e1e1e1" stroke-width="0.5"/><path d="M275.76505,67.86413l0.07972,-3.47568c0,0 1.54614,-1.06752 3.1156,-0.70575c1.56946,0.36178 1.7605,2.13826 1.7605,2.13826z" fill="#d4d4d4" stroke-width="0"/><path d="M282.73579,61.76617c0,0 -0.40263,-0.62787 -1.01632,-0.73556c-0.61369,-0.10768 -1.20604,0.3456 -1.20604,0.3456c0,0 0.71763,-1.16726 1.33131,-1.05958c0.61369,0.10768 0.89104,1.44954 0.89104,1.44954z" fill="#000000" stroke-width="0"/><path d="M276.9659,61.53298c0,0 -0.37593,-0.59571 -0.83953,-0.66227c-0.4636,-0.06656 -0.83931,0.42125 -0.83931,0.42125c0,0 0.37556,-1.20334 0.83916,-1.13678c0.4636,0.06656 0.83968,1.3778 0.83968,1.3778z" fill="#000000" stroke-width="0"/></g><path d="M249.98936,143.34619c0,-1.65654 -5.80143,-1.9233 -5.80143,-1.9233c0,0 6.69584,-8.87746 7.35214,-11.71771c6.65986,-28.82218 23.99043,-56.21969 66.68631,-56.74538c45.68643,-0.56252 68.23702,35.01087 68.23702,70.3864c0,0.66795 3.07779,7.31159 4.43041,10.36634c2.27861,5.14598 3.33715,7.45866 3.33715,7.45866c0,0 -2.64733,-1.66693 -4.82385,-3.56682c-2.14071,-1.86864 -3.80963,-3.97893 -3.99144,-3.01508c-0.18224,0.96614 1.82716,6.2338 1.84673,11.07537c0.00907,2.2443 -1.42639,5.70843 -1.7074,7.69134c-0.55844,3.94054 -0.17718,5.65089 -0.17718,5.65089l-3.44765,-0.76193c0,0 1.54658,4.22809 1.90044,6.67953c0.34057,2.35943 0.18436,7.76364 0.18436,7.76364l-4.59492,-3.14158c0,0 -7.83311,10.1096 -9.33581,14.54475c-1.73677,5.12598 -6.02968,21.49464 -6.02968,21.49464l-3.44459,-4.46699c0,0 -9.87315,36.91086 -40.88359,34.82576c-35.10737,-2.36057 -46.58682,-41.04174 -46.58682,-41.04174l-5.46498,3.17491c0,0 0.22544,-5.58146 -1.26574,-12.7058c-1.01959,-4.87123 -4.03652,-10.46063 -4.03652,-10.46063l-4.58186,3.9778c0,0 2.94519,-20.70693 0.54268,-24.82581c-0.34082,-0.58431 -4.01999,1.58785 -5.934,2.01254c-2.96082,0.65696 -4.48364,-0.08182 -4.48364,-0.08182c0,0 2.67098,-3.37669 3.55098,-5.15497c0.94364,-1.90688 1.93325,-5.92746 1.93325,-5.92746c0,0 -2.66402,1.90888 -4.05965,2.38502c-1.48595,0.50696 -4.60208,0.57008 -4.60208,0.57008c0,0 4.39229,-5.64339 5.74307,-11.5602c1.27257,-5.57422 -0.4917,-11.39111 -0.4917,-12.96047z" fill="#cecece" stroke="#000000" stroke-width="0" stroke-linecap="butt"/><g stroke="none" stroke-linecap="butt"><path d="M278.33692,225.64831c-1.02655,0.78371 -3.6437,-0.64542 -3.6437,-0.64542c0,0 -1.5321,1.55152 -2.45409,1.6926c-1.43958,0.22027 -3.33845,-1.29778 -3.33845,-1.29778c0,0 -2.39904,2.25208 -3.2715,1.38785c-1.2087,-1.19729 -1.67719,-5.3891 -1.72309,-7.20191c-0.11323,-4.47187 2.4151,-8.75643 6.94109,-9.44896c4.52598,-0.69253 8.89306,4.47968 9.34224,6.24364c0.49276,1.9351 0.0586,7.81096 -1.85249,9.26998z" data-paper-data="{&quot;index&quot;:null}" fill="#e1e1e1" stroke-width="0.5"/><path d="M278.81932,229.51231c-4.60827,-5.80252 -4.34133,-13.68526 0.59622,-17.60659c4.93755,-3.92132 12.67596,-2.39631 17.28424,3.40622c4.60827,5.80252 4.34134,13.68526 -0.59621,17.60659c-4.93755,3.92132 -12.67597,2.39631 -17.28424,-3.40621z" fill="#ececec" stroke-width="0.5"/><path d="M268.28553,209.82669c-1.61569,-5.67471 1.67479,-11.58476 7.34951,-13.20045c5.67471,-1.61569 11.58476,1.6748 13.20045,7.34951c1.61569,5.67471 -1.6748,11.58476 -7.34951,13.20045c-5.67471,1.61569 -11.58476,-1.6748 -13.20045,-7.34951z" fill="#f5f5f5" stroke-width="0.5"/><path d="M289.4361,213.95359c-0.54733,-1.73601 0.44043,-8.43284 4.65243,-10.22817c4.212,-1.79533 8.61798,0.51491 10.87723,4.37577c0.91586,1.56512 2.7256,5.37504 2.32883,7.02944c-0.2864,1.19418 -3.5119,0.5435 -3.5119,0.5435c0,0 -0.81448,2.29059 -2.1542,2.86163c-0.85803,0.36573 -2.9776,-0.1461 -2.9776,-0.1461c0,0 -1.47189,2.59335 -2.75729,2.46789c-2.393,-0.23357 -5.85707,-4.99953 -6.4575,-6.90397z" fill="#e1e1e1" stroke-width="0.5"/><path d="M271.21055,217.30548l-0.75167,-3.90885c0,0 1.47198,-1.56871 3.31586,-1.54355c1.84388,0.02515 2.48745,1.96697 2.48745,1.96697z" fill="#d4d4d4" stroke-width="0"/><path d="M277.53608,208.79492c0,0 -0.60249,-0.60523 -1.31531,-0.57727c-0.71282,0.02796 -1.26604,0.67854 -1.26604,0.67854c0,0 0.52069,-1.47988 1.23351,-1.50785c0.71282,-0.02796 1.34784,1.40658 1.34784,1.40658z" fill="#000000" stroke-width="0"/><path d="M271.02268,209.92989c0,0 -0.56482,-0.5757 -1.09973,-0.53803c-0.53491,0.03767 -0.83734,0.67447 -0.83734,0.67447c0,0 0.12916,-1.43749 0.66406,-1.47517c0.53491,-0.03767 1.273,1.33873 1.273,1.33873z" fill="#000000" stroke-width="0"/></g><path d="M284.89942,312.5l15.14285,-131.8421l37.78325,-0.15789l13.57389,132z" fill="#ffffff" stroke="#cecece" stroke-width="2" stroke-linecap="butt"/><path d="M297.84965,209.11263l3.12142,-26.32765l35.83075,-0.14203l2.89235,26.1059c0,0 -7.64043,4.19603 -21.68404,4.50964c-12.48458,0.27879 -20.16049,-4.14586 -20.16049,-4.14586z" fill="#e6e6e6" stroke="#000000" stroke-width="0" stroke-linecap="butt"/><path d="M283.29942,314.48496l10.84653,-99.68228l49.35139,0.16236l9.50207,99.51993z" fill="#f5f5f5" stroke="#cecece" stroke-width="0" stroke-linecap="butt"/><path d="M283.29942,314.48496l10.84653,-99.68228c0,0 2.84333,45.16747 23.8648,45.75066c24.41107,0.67723 25.4866,-45.5883 25.4866,-45.5883l9.50207,99.51993z" fill="#ececec" stroke="#cecece" stroke-width="0" stroke-linecap="butt"/><path d="M253.98933,141.84616c0,-33.30185 28.7599,-60.29833 64.23702,-60.29833c35.47712,0 64.23702,26.99649 64.23702,60.29833c0,33.30185 -28.7599,60.29833 -64.23702,60.29833c-35.47712,0 -64.23702,-26.99649 -64.23702,-60.29833z" fill="#ffffff" stroke="#cecece" stroke-width="2" stroke-linecap="butt"/><path d="M254.7124,141.9c0,-0.72799 5.20666,55.91939 63.36046,56.93429c55.56352,0.9697 63.51358,-57.95314 63.51358,-56.93429c0,32.80479 -28.40173,59.39833 -63.43702,59.39833c-35.03529,0 -63.43702,-26.59354 -63.43702,-59.39833z" fill="#e6e6e6" stroke="#000000" stroke-width="0" stroke-linecap="butt"/><path d="M267.53954,142.27563c0,-12.968 10.51265,-23.48065 23.48065,-23.48065c12.968,0 23.48065,10.51265 23.48065,23.48065c0,12.968 -10.51265,23.48065 -23.48065,23.48065c-12.968,0 -23.48065,-10.51265 -23.48065,-23.48065z" fill="#ffffff" stroke="#cecece" stroke-width="2" stroke-linecap="butt"/><path d="M305.65642,181.65643h25.10959" fill="none" stroke="#cecece" stroke-width="2" stroke-linecap="round"/><path d="M345.27865,165.75627c-12.968,0 -23.48065,-10.51265 -23.48065,-23.48065c0,-12.968 10.51265,-23.48065 23.48065,-23.48065c12.968,0 23.48065,10.51265 23.48065,23.48065c0,12.968 -10.51265,23.48065 -23.48065,23.48065z" data-paper-data="{&quot;index&quot;:null}" fill="#ffffff" stroke="#cecece" stroke-width="2" stroke-linecap="butt"/><path d="M280.17721,113.46716c0,0 6.70895,-5.16922 11.79721,-6.36355c5.08827,-1.19433 12.33413,0.69937 12.33413,0.69937c0,0 -8.03812,-0.06028 -11.96762,0.86207c-4.10648,0.96389 -12.16372,4.80211 -12.16372,4.80211z" fill="#cecece" stroke="none" stroke-width="0" stroke-linecap="butt"/><path d="M344.11176,108.66506c-3.9295,-0.92235 -11.96762,-0.86207 -11.96762,-0.86207c0,0 7.24586,-1.8937 12.33413,-0.69937c5.08826,1.19433 11.79721,6.36355 11.79721,6.36355c0,0 -8.05724,-3.83822 -12.16372,-4.80211z" data-paper-data="{&quot;index&quot;:null}" fill="#cecece" stroke="none" stroke-width="0" stroke-linecap="butt"/><path d="M261.01175,110.63723c11.42496,-22.68233 31.40973,-33.07142 60.56473,-32.85267c24.16321,0.18129 39.14424,9.27509 47.64651,17.23625c0.95139,0.89084 -11.16905,5.58091 -18.25999,7.52146c-15.29703,4.18628 -30.35723,6.25195 -30.35723,6.25195l6.65013,-11.17032c0,0 -23.70536,7.34319 -34.98048,9.59002c-11.17264,2.22641 -31.26367,3.4233 -31.26367,3.4233z" fill="#cecece" stroke="none" stroke-width="0" stroke-linecap="butt"/><path d="M267.48829,141.9757l-3.6,-2.6" fill="none" stroke="#cecece" stroke-width="2" stroke-linecap="round"/><path d="M368.2883,141.7757l4.2,-3.4" fill="none" stroke="#cecece" stroke-width="2" stroke-linecap="round"/><path d="M267.67812,142.28512c0,-12.96801 10.51265,-23.48065 23.48066,-23.48065c12.96801,0 23.48065,10.51264 23.48065,23.48065c0,0 -4.90806,22.46511 -23.43307,22.26121c-19.92475,-0.21931 -23.52823,-21.6446 -23.52823,-22.26121z" fill="#cecece" stroke="#cecece" stroke-width="2" stroke-linecap="butt"/><path d="M321.85813,142.17981c0,-12.96801 10.51264,-23.48065 23.48065,-23.48065c12.96801,0 23.48066,10.51264 23.48066,23.48065c0,0.60606 -3.97259,22.59312 -22.72496,22.469c-22.15221,-0.14662 -24.23635,-22.469 -24.23635,-22.469z" data-paper-data="{&quot;index&quot;:null}" fill="#cecece" stroke="#cecece" stroke-width="2" stroke-linecap="butt"/><path d="M293.52787,216.88758l0.5,-5c0,0 6.0514,-0.6702 12.24317,-0.22033c4.56837,0.33192 8.93977,1.82033 12.42205,1.82033c3.69232,0 8.01672,-1.31687 12.78933,-1.66859c5.9518,-0.43861 12.04545,0.06859 12.04545,0.06859l0.75,5c0,0 -5.816,-0.52361 -12.34849,-0.12661c-4.66601,0.28356 -9.69756,1.52661 -13.23629,1.52661c-3.40503,0 -8.16955,-1.42879 -12.63797,-1.70138c-6.58517,-0.40173 -12.52725,0.30138 -12.52725,0.30138z" fill="#a0a0a0" stroke="none" stroke-width="0" stroke-linecap="butt"/><path d="M265.99661,98.77256c0,0 9.03648,1.59694 33.39193,1.04476c19.94874,-0.45227 32.81098,-4.71044 42.54632,-4.67626c15.62897,0.05488 34.56175,4.1315 34.56175,4.1315" fill="none" stroke="#6e6e6e" stroke-width="2" stroke-linecap="round"/><g stroke="#000000" stroke-width="0" stroke-linecap="butt"><path d="M354.56048,87.16202c2.06879,-1.23855 4.57048,-0.17454 5.96318,2.15172c1.3927,2.32627 1.14901,5.03389 -0.91977,6.27244c-2.06879,1.23855 -5.17927,0.53901 -6.57197,-1.78725c-1.3927,-2.32627 -0.54023,-5.39836 1.52856,-6.63691z" fill="#ececec"/><path d="M359.18775,95.29874c1.88588,1.50244 1.76767,4.21843 0.07824,6.33903c-1.68943,2.1206 -4.31032,2.84279 -6.1962,1.34036c-1.88588,-1.50244 -2.32263,-4.66055 -0.6332,-6.78116c1.68943,-2.1206 4.86528,-2.40067 6.75116,-0.89823z" fill="#ececec"/><path d="M350.85159,96.5476c2.50722,1.03198 3.6607,4.00417 2.74295,6.23388c-0.91775,2.22971 -3.55921,2.87259 -6.06643,1.84061c-2.50722,-1.03198 -3.93077,-3.34803 -3.01302,-5.57774c0.91775,-2.22971 3.82928,-3.52873 6.3365,-2.49675z" data-paper-data="{&quot;index&quot;:null}" fill="#ececec"/><path d="M350.66588,93.23932c-2.6671,0.48758 -5.24452,-1.38895 -5.67813,-3.76084c-0.43361,-2.37189 1.44079,-4.34096 4.10788,-4.82853c2.6671,-0.48758 5.11692,0.69097 5.55053,3.06286c0.43361,2.37189 -1.31319,5.03894 -3.98028,5.52651z" data-paper-data="{&quot;index&quot;:null}" fill="#ececec"/><path d="M343.921,98.76637c-2.35996,-0.49443 -3.47515,-2.97373 -2.91918,-5.62742c0.55597,-2.65368 2.57256,-4.47685 4.93252,-3.98242c2.35996,0.49443 4.16962,3.11923 3.61365,5.77292c-0.55597,2.65368 -3.26703,4.33135 -5.62699,3.83692z" data-paper-data="{&quot;index&quot;:null}" fill="#ececec"/><path d="M348.59913,90.33956c2.18501,-1.30813 5.01676,-0.59728 6.32489,1.58773c1.30813,2.18501 0.59728,5.01676 -1.58773,6.32489c-2.18501,1.30813 -5.01676,0.59728 -6.32489,-1.58773c-1.30813,-2.18501 -0.59728,-5.01676 1.58773,-6.32489z" fill="#ffffff"/></g><g stroke="#000000" stroke-width="0" stroke-linecap="butt"><path d="M369.0152,94.86809c-0.7793,-2.19101 -0.01273,-4.40663 1.57073,-5.34641c1.58346,-0.93977 3.38421,-0.24782 4.16351,1.94318c0.7793,2.19101 0.24205,5.05139 -1.34141,5.99116c-1.58346,0.93977 -3.61352,-0.39693 -4.39283,-2.58794z" fill="#ececec"/><path d="M374.54824,91.81473c1.04507,-1.55161 2.85425,-0.9784 4.23058,0.99869c1.37633,1.9771 1.79864,4.60939 0.75357,6.161c-1.04507,1.55161 -3.16178,1.43501 -4.53811,-0.54209c-1.37633,-1.9771 -1.49111,-5.06599 -0.44603,-6.6176z" fill="#ececec"/><path d="M375.19221,100.00963c0.74532,-2.22634 2.75427,-2.82762 4.2209,-1.57107c1.46662,1.25655 1.83556,3.89512 1.09024,6.12145c-0.74532,2.22634 -2.32269,3.19739 -3.78931,1.94084c-1.46662,-1.25655 -2.26714,-4.26489 -1.52182,-6.49122z" data-paper-data="{&quot;index&quot;:null}" fill="#ececec"/><path d="M372.98103,99.62717c0.26475,2.6368 -1.04558,4.78735 -2.63772,4.80089c-1.59213,0.01354 -2.86318,-2.11503 -3.12793,-4.75185c-0.26475,-2.6368 0.57706,-4.78335 2.16919,-4.7969c1.59213,-0.01354 3.3317,2.11105 3.59645,4.74786z" data-paper-data="{&quot;index&quot;:null}" fill="#ececec"/><path d="M376.5151,107.02272c-0.38338,2.17636 -2.06264,2.82445 -3.82031,1.84255c-1.75766,-0.98189 -2.92816,-3.22194 -2.54477,-5.39828c0.38338,-2.17636 2.17546,-3.46488 3.93313,-2.483c1.75766,0.98189 2.81534,3.86237 2.43196,6.03872z" data-paper-data="{&quot;index&quot;:null}" fill="#ececec"/><path d="M370.99969,101.11534c-0.82308,-2.31409 -0.28462,-4.90563 1.2027,-5.78833c1.48732,-0.88271 3.36026,0.27766 4.18335,2.59176c0.82308,2.31409 0.28462,4.90563 -1.2027,5.78833c-1.48732,0.88271 -3.36026,-0.27766 -4.18335,-2.59176z" fill="#ffffff"/></g><g stroke="#000000" stroke-width="0" stroke-linecap="butt"><path d="M284.70864,93.11879c0,-2.4112 2.19794,-4.01109 4.90924,-4.01109c2.7113,0 4.90924,1.59989 4.90924,4.01109c0,2.4112 -2.19794,4.72064 -4.90924,4.72064c-2.7113,0 -4.90924,-2.30944 -4.90924,-4.72064z" fill="#ececec"/><path d="M294.06674,93.32819c2.25779,-0.84632 4.52736,0.65022 5.47902,3.18902c0.95166,2.5388 0.22503,5.15846 -2.03276,6.00478c-2.25779,0.84632 -5.19177,-0.40117 -6.14342,-2.93997c-0.95166,-2.5388 0.43938,-5.4075 2.69716,-6.25383z" fill="#ececec"/><path d="M290.85626,101.12203c2.1733,-1.62108 5.31592,-1.08404 6.75757,0.8487c1.44165,1.93275 0.63641,4.52932 -1.53689,6.1504c-2.1733,1.62108 -4.89168,1.6528 -6.33333,-0.27995c-1.44165,-1.93275 -1.06065,-5.09807 1.11265,-6.71915z" data-paper-data="{&quot;index&quot;:null}" fill="#ececec"/><path d="M287.9224,99.58201c-0.95166,2.5388 -3.88563,3.78629 -6.14342,2.93997c-2.25779,-0.84632 -2.98442,-3.46598 -2.03276,-6.00478c0.95166,-2.5388 3.22123,-4.03534 5.47902,-3.18902c2.25779,0.84632 3.64882,3.71503 2.69716,6.25383z" data-paper-data="{&quot;index&quot;:null}" fill="#ececec"/><path d="M289.19994,108.20811c-1.63645,1.77085 -4.3365,1.45414 -6.32776,-0.38598c-1.99125,-1.84012 -2.51966,-4.50684 -0.88321,-6.27769c1.63645,-1.77085 4.81806,-1.97526 6.80932,-0.13513c1.99125,1.84012 2.0381,5.02795 0.40165,6.7988z" data-paper-data="{&quot;index&quot;:null}" fill="#ececec"/><path d="M284.37281,99.86576c0,-2.54666 2.06448,-4.61114 4.61114,-4.61114c2.54666,0 4.61114,2.06448 4.61114,4.61114c0,2.54666 -2.06448,4.61114 -4.61114,4.61114c-2.54666,0 -4.61114,-2.06448 -4.61114,-4.61114z" fill="#ffffff"/></g><g stroke="#000000" stroke-width="0" stroke-linecap="butt"><path d="M292.05502,91.4295c1.71984,-1.68998 4.40151,-1.24359 6.30182,0.69031c1.90031,1.93389 2.29966,4.62297 0.57982,6.31295c-1.71984,1.68998 -4.90761,1.7409 -6.80792,-0.193c-1.90031,-1.93389 -1.79356,-5.12028 -0.07372,-6.81026z" fill="#ececec"/><path d="M298.46463,98.25114c2.18611,1.01724 2.70938,3.68497 1.56553,6.14317c-1.14385,2.4582 -3.52167,3.776 -5.70778,2.75875c-2.18611,-1.01724 -3.35269,-3.98432 -2.20884,-6.44252c1.14385,-2.4582 4.16498,-3.47665 6.35109,-2.45941z" fill="#ececec"/><path d="M290.65531,101.42379c2.67951,0.41396 4.49907,3.03191 4.13093,5.41484c-0.36814,2.38293 -2.78459,3.62848 -5.4641,3.21451c-2.67951,-0.41396 -4.60741,-2.33068 -4.23927,-4.71361c0.36814,-2.38293 2.89292,-4.3297 5.57243,-3.91574z" data-paper-data="{&quot;index&quot;:null}" fill="#ececec"/><path d="M289.69745,98.25177c-2.47786,1.10062 -5.42405,-0.11776 -6.40284,-2.32135c-0.9788,-2.20359 0.38045,-4.55796 2.85831,-5.65858c2.47786,-1.10062 5.13601,-0.5307 6.11481,1.6729c0.9788,2.20359 -0.09242,5.20642 -2.57028,6.30704z" data-paper-data="{&quot;index&quot;:null}" fill="#ececec"/><path d="M284.4401,105.20892c-2.41006,0.07393 -4.0766,-2.07392 -4.15973,-4.78394c-0.08313,-2.71002 1.44861,-4.95599 3.85867,-5.02992c2.41006,-0.07393 4.78581,2.05216 4.86894,4.76219c0.08313,2.71002 -2.15783,4.97774 -4.56789,5.05168z" data-paper-data="{&quot;index&quot;:null}" fill="#ececec"/><path d="M287.00721,95.91882c1.81646,-1.78492 4.73596,-1.75935 6.52088,0.05712c1.78492,1.81646 1.75935,4.73596 -0.05712,6.52088c-1.81646,1.78492 -4.73596,1.75935 -6.52088,-0.05712c-1.78492,-1.81646 -1.75935,-4.73596 0.05712,-6.52088z" fill="#ffffff"/></g><g stroke="#000000" stroke-width="0" stroke-linecap="butt"><path d="M265.62586,91.4755c0.59302,-2.33714 2.44523,-3.51775 4.24465,-3.06117c1.79942,0.45658 2.86466,2.37747 2.27164,4.7146c-0.59302,2.33714 -2.61974,4.2055 -4.41916,3.74892c-1.79942,-0.45658 -2.69015,-3.06522 -2.09713,-5.40235z" fill="#ececec"/><path d="M271.78511,93.25438c1.70659,-0.44011 2.84479,1.39266 2.85198,4.01373c0.00719,2.62107 -1.11935,5.0379 -2.82594,5.47802c-1.70659,0.44011 -3.34699,-1.26314 -3.35418,-3.88422c-0.00719,-2.62107 1.62155,-5.16742 3.32814,-5.60753z" fill="#ececec"/><path d="M267.73753,100.26818c1.84106,-1.2053 3.79467,-0.15554 4.27611,1.96061c0.48144,2.11615 -0.69159,4.49737 -2.53265,5.70267c-1.84106,1.2053 -3.65299,0.77827 -4.13443,-1.33789c-0.48144,-2.11615 0.54991,-5.12009 2.39098,-6.3254z" data-paper-data="{&quot;index&quot;:null}" fill="#ececec"/><path d="M266.16916,98.2814c-1.256,2.30056 -3.51002,3.01565 -4.80031,1.81511c-1.29029,-1.20054 -1.12825,-3.8621 0.12775,-6.16265c1.256,-2.30056 3.13032,-3.36893 4.42062,-2.16839c1.29029,1.20054 1.50795,4.21538 0.25195,6.51594z" data-paper-data="{&quot;index&quot;:null}" fill="#ececec"/><path d="M264.89549,106.85768c-1.5216,1.44088 -3.23567,0.67921 -4.10465,-1.43972c-0.86898,-2.11893 -0.56381,-4.79272 0.9578,-6.2336c1.5216,-1.44088 3.68344,-1.10322 4.55242,1.01571c0.86898,2.11893 0.11604,5.21673 -1.40556,6.65761z" data-paper-data="{&quot;index&quot;:null}" fill="#ececec"/><path d="M263.74359,97.95868c0.62634,-2.46843 2.50423,-4.12184 4.19439,-3.69298c1.69016,0.42886 2.55256,2.77758 1.92622,5.24602c-0.62634,2.46843 -2.50423,4.12184 -4.19439,3.69298c-1.69016,-0.42886 -2.55256,-2.77758 -1.92622,-5.24602z" fill="#ffffff"/></g><g stroke="#000000" stroke-width="0" stroke-linecap="butt"><path d="M313.76748,92.53588c-0.21929,-2.40121 1.82404,-4.19436 4.5241,-4.44094c2.70006,-0.24658 5.0344,1.14679 5.25369,3.54799c0.21929,2.40121 -1.75951,4.90097 -4.45957,5.14755c-2.70006,0.24658 -5.09893,-1.85339 -5.31822,-4.2546z" fill="#ececec"/><path d="M323.10584,91.89334c2.17146,-1.04815 4.56773,0.23578 5.74634,2.67751c1.17861,2.44173 0.69324,5.11661 -1.47822,6.16476c-2.17146,1.04815 -5.20673,0.07266 -6.38534,-2.36906c-1.17861,-2.44173 -0.05424,-5.42505 2.11723,-6.4732z" fill="#ececec"/><path d="M320.61748,99.94686c2.01686,-1.81202 5.1953,-1.56301 6.80675,0.23061c1.61145,1.79362 1.0457,4.45267 -0.97116,6.26469c-2.01686,1.81202 -4.72109,2.09083 -6.33255,0.2972c-1.61145,-1.79362 -1.51991,-4.98048 0.49696,-6.7925z" data-paper-data="{&quot;index&quot;:null}" fill="#ececec"/><path d="M317.55572,98.68005c-0.71682,2.61482 -3.52518,4.12398 -5.85058,3.4865c-2.3254,-0.63748 -3.28727,-3.1802 -2.57045,-5.79502c0.71682,-2.61482 2.84088,-4.31157 5.16628,-3.6741c2.3254,0.63748 3.97157,3.36779 3.25475,5.98261z" data-paper-data="{&quot;index&quot;:null}" fill="#ececec"/><path d="M319.61247,107.15421c-1.46861,1.91234 -4.18628,1.84251 -6.33664,0.19111c-2.15035,-1.6514 -2.9191,-4.25901 -1.45048,-6.17135c1.46861,-1.91234 4.61845,-2.40525 6.76881,-0.75385c2.15035,1.6514 2.48693,4.82176 1.01831,6.7341z" data-paper-data="{&quot;index&quot;:null}" fill="#ececec"/><path d="M314.04665,99.28544c-0.23161,-2.5361 1.63656,-4.77978 4.17266,-5.01139c2.5361,-0.23161 4.77978,1.63656 5.01139,4.17266c0.23161,2.5361 -1.63656,4.77978 -4.17266,5.01139c-2.5361,0.23161 -4.77978,-1.63656 -5.01139,-4.17266z" fill="#ffffff"/></g><path d="" fill="#644c52" stroke="none" stroke-width="0.5" stroke-linecap="butt"/></g></g></svg>