<svg version="1.1" xmlns="http://www.w3.org/2000/svg" xmlns:xlink="http://www.w3.org/1999/xlink" width="123.38551" height="235.67155" viewBox="0,0,123.38551,235.67155"><g transform="translate(-187.28851,-75.07861)"><g data-paper-data="{&quot;isPaintingLayer&quot;:true}" fill-rule="nonzero" stroke="none" stroke-linecap="butt" stroke-linejoin="miter" stroke-miterlimit="10" stroke-dasharray="" stroke-dashoffset="0" style="mix-blend-mode: normal"><path d="M310.42472,214.78215c-1.77664,4.61991 -12.5665,4.24437 -24.09983,-0.83878c-11.53333,-5.08316 -19.4427,-12.94905 -17.66606,-17.56896c1.77664,-4.61991 12.5665,-4.24437 24.09983,0.83878c11.53333,5.08316 19.4427,12.94905 17.66606,17.56896z" fill="#02653b" stroke-width="0"/><path d="M263.41865,233.26368c-2.88713,4.02051 -13.23137,0.92875 -23.1045,-6.90563c-9.87313,-7.83438 -15.5364,-17.44467 -12.64927,-21.46518c2.88713,-4.02051 13.23137,-0.92875 23.1045,6.90563c9.87313,7.83438 15.5364,17.44467 12.64927,21.46518z" fill="#02653b" stroke-width="0"/><path d="M295.34646,244.30236c3.27805,3.70869 -2.036,13.10673 -11.86926,20.9911c-9.83326,7.88437 -20.46207,11.26942 -23.74012,7.56073c-3.27805,-3.70869 2.036,-13.10673 11.86926,-20.9911c9.83326,-7.88437 20.46207,-11.26942 23.74012,-7.56073z" fill="#02653b" stroke-width="0"/><path d="M248.32487,310.75016c0,0 7.76857,-12.82842 2.68547,-29.06318c-3.49711,-11.1693 -3.79302,-12.24517 -4.90285,-28.55803c-1.16102,-17.06531 20.13126,-40.40234 21.15357,-65.97671c0.93558,-23.40486 -3.43619,-46.40208 -3.43619,-46.40208h22c0,0 0.96515,21.66196 0.09096,46.40946c-1.07895,30.54403 -21.00716,48.95738 -18.5004,63.57577c1.97525,11.51884 5.6316,13.83891 9.84269,26.9653c5.0458,15.72828 1.56675,33.04947 1.56675,33.04947z" fill="#21ac4d" stroke-width="NaN"/><path d="M248.32487,310.75016c0,0 22.7765,-5.10203 24.07194,-21.32327c1.20809,-15.12741 -5.75128,-43.18122 -4.98138,-38.6915c1.97525,11.51884 5.6316,13.83891 9.84269,26.9653c5.0458,15.72828 1.56675,33.04947 1.56675,33.04947z" fill="#02653b" stroke-width="NaN"/><path d="M267.32512,175.3431c-0.49056,-18.76084 -3.50025,-34.59294 -3.50025,-34.59294h22c0,0 0.91444,15.35234 0.65316,29.55293c-0.01943,1.0559 -3.59264,4.00091 -8.98027,5.88542c-2.9246,1.02298 -10.17264,-0.8454 -10.17264,-0.8454z" fill="#02653b" stroke-width="NaN"/><path d="M248.68742,94.53293c4.47409,9.95346 5.65626,22.23449 -6.50443,27.16265c-13.57754,5.50234 -18.41254,-0.2216 -24.72894,-11.72c-7.9972,-14.55817 1.6802,-34.89697 1.6802,-34.89697c0,0 22.83351,4.50516 29.55317,19.45432z" fill="#96a1ab" stroke-width="NaN"/><path d="M277.34334,113.29348c-5.49274,9.42968 -14.79375,19.03598 -25.87685,12.01216c-12.37439,-7.84217 -10.53171,-16.60476 -4.85421,-28.43167c7.18832,-14.9741 29.36096,-18.93559 29.36096,-18.93559c0,0 9.61968,21.19262 1.3701,35.3551z" fill="#abb7c4" stroke-width="NaN"/><path d="M270.26395,150.9736c-10.66475,-2.31347 -21.2464,-8.65772 -17.98706,-21.36779c3.63909,-14.19092 11.1158,-14.68026 24.11774,-12.93109c16.4618,2.21462 27.07463,22.08136 27.07463,22.08136c0,0 -17.18786,15.69213 -33.20531,12.21752z" fill="#bfceda" stroke-width="NaN"/><path d="M244.02286,159.48c-5.23075,-9.57749 -7.35951,-21.73024 4.38345,-27.58446c13.11115,-6.5363 18.3745,-1.20358 25.56155,9.77168c9.09955,13.89581 1.0247,34.92237 1.0247,34.92237c0,0 -23.11361,-2.72511 -30.96971,-17.10959z" fill="#adb7c4" stroke-width="NaN"/><path d="M224.04292,151.36791c1.34138,-10.83004 6.70461,-21.94115 19.657,-19.84236c14.46148,2.34332 15.62368,9.74534 15.05525,22.85209c-0.71969,16.5945 -19.54738,28.95724 -19.54738,28.95724c0,0 -17.17951,-15.70128 -15.16487,-31.96697z" fill="#c2cfdb" stroke-width="NaN"/><path d="M211.70484,132.42994c8.39209,-6.9758 19.90819,-11.40307 27.91246,-1.00592c8.93686,11.60853 4.71649,17.79959 -4.67084,26.96408c-11.88534,11.60319 -34.07269,7.72491 -34.07269,7.72491c0,0 -1.77306,-23.20607 10.83107,-33.68306z" fill="#abb7c4" stroke-width="NaN"/><path d="M219.9805,107.65248c10.74848,1.88657 21.57458,7.80406 18.8244,20.63393c-3.07061,14.32469 -10.52188,15.11161 -23.5832,13.88204c-16.53698,-1.55676 -27.93319,-20.98473 -27.93319,-20.98473c0,0 16.54878,-16.36469 32.69198,-13.53124z" fill="#bfceda" stroke-width="NaN"/><g stroke-width="0"><path d="M233.51117,139.56387c-6.24839,-6.24838 -6.24839,-16.37902 0,-22.62741c6.24839,-6.24838 16.37903,-6.24838 22.62741,0c6.24838,6.24838 6.24838,16.37902 0,22.62741c-6.24838,6.24839 -16.37903,6.24839 -22.62741,0z" fill="#f4d01b"/><path d="M233.51117,139.56387c-2.09102,-2.09102 -3.48229,-4.6168 -4.17379,-7.28637c-0.14966,-0.57779 9.05902,5.75335 17.1636,-2.35123c8.38786,-8.38787 2.29877,-17.19393 2.98964,-16.98401c2.4329,0.73923 4.72439,2.07063 6.64796,3.9942c6.24838,6.24838 6.24838,16.37902 0,22.62741c-6.24838,6.24839 -16.37903,6.24839 -22.62741,0z" fill="#eea915"/></g></g></g></svg>